<svg width="153" height="151" viewBox="0 0 153 151" fill="none" xmlns="http://www.w3.org/2000/svg">
<g style="mix-blend-mode:screen">
<path d="M134.792 150.287C100.304 150.287 65.8153 142.98 39.5483 128.359C14.0495 114.166 0 95.2646 0 75.1457C0 55.0268 14.0421 36.1258 39.5483 21.918C92.0676 -7.30243 177.502 -7.30955 230.036 21.918C255.542 36.1187 269.592 55.0126 269.592 75.1457C269.592 95.2788 255.542 114.158 230.036 128.359C203.769 142.98 169.28 150.287 134.792 150.287ZM134.792 0.702407C100.444 0.702407 66.0812 7.98077 39.925 22.5304C14.6478 36.603 0.731302 55.2903 0.731302 75.1457C0.731302 95.0011 14.6552 113.674 39.925 127.747C92.2374 156.86 177.347 156.86 229.659 127.747C254.936 113.681 268.853 95.0011 268.853 75.1457C268.853 55.2903 254.936 36.603 229.659 22.5304C203.503 7.97364 169.155 0.702407 134.792 0.702407Z" fill="url(#paint0_linear_2209_169)"/>
</g>
<g style="mix-blend-mode:screen">
<path d="M134.799 122.355C112.499 122.355 90.2135 117.634 73.2389 108.183C56.7297 98.9961 47.6367 86.7468 47.6367 73.714C47.6367 60.6813 56.7223 48.4319 73.2389 39.2449C107.188 20.351 162.411 20.3438 196.36 39.2449C212.862 48.4319 221.962 60.6813 221.962 73.714C221.962 86.7468 212.869 98.9961 196.36 108.183C179.385 117.634 157.092 122.355 134.799 122.355ZM134.799 25.7777C112.639 25.7777 90.4794 30.471 73.6156 39.8574C57.3354 48.9233 48.3754 60.9448 48.3754 73.714C48.3754 86.4833 57.3354 98.5047 73.6156 107.571C107.343 126.351 162.256 126.351 195.983 107.571C212.256 98.5118 221.216 86.4833 221.216 73.714C221.216 60.9448 212.256 48.9233 195.983 39.8574C179.12 30.471 156.96 25.7777 134.799 25.7777Z" fill="url(#paint1_linear_2209_169)"/>
</g>
<defs>
<linearGradient id="paint0_linear_2209_169" x1="-449.893" y1="75.1457" x2="-442.506" y2="75.1457" gradientUnits="userSpaceOnUse">
<stop/>
<stop offset="1" stop-color="#8FF5F0"/>
</linearGradient>
<linearGradient id="paint1_linear_2209_169" x1="221.962" y1="73.714" x2="47.6367" y2="73.714" gradientUnits="userSpaceOnUse">
<stop/>
<stop offset="1" stop-color="#8FF5F0"/>
</linearGradient>
</defs>
</svg>
