<svg width="492" height="691" viewBox="0 0 492 691" fill="none" xmlns="http://www.w3.org/2000/svg">
<g style="mix-blend-mode:screen">
<path d="M205.691 388.166C171.202 388.166 136.714 380.586 110.447 365.418C84.9405 350.694 70.8984 331.086 70.8984 310.207C70.8984 289.328 84.9405 269.727 110.447 254.995C162.981 224.666 248.415 224.666 300.934 254.995C326.441 269.719 340.49 289.335 340.49 310.207C340.49 331.078 326.441 350.686 300.934 365.418C274.667 380.586 240.179 388.166 205.691 388.166ZM205.691 232.978C171.342 232.978 136.98 240.529 110.823 255.63C85.5536 270.229 71.6297 289.608 71.6297 310.207C71.6297 330.805 85.5536 350.184 110.823 364.783C163.136 394.986 248.245 394.978 300.558 364.783C325.835 350.184 339.751 330.805 339.751 310.207C339.751 289.608 325.835 270.229 300.558 255.63C274.401 240.529 240.053 232.978 205.691 232.978Z" fill="url(#paint0_linear_2209_495)"/>
</g>
<g style="mix-blend-mode:screen">
<path d="M205.698 359.19C183.398 359.19 161.112 354.292 144.137 344.488C127.628 334.957 118.535 322.249 118.535 308.721C118.535 295.194 127.621 282.494 144.137 272.963C178.087 253.377 233.309 253.369 267.258 272.963C283.76 282.494 292.861 295.201 292.861 308.721C292.861 322.242 283.768 334.957 267.258 344.488C250.284 354.292 227.991 359.19 205.698 359.19ZM144.507 273.598C128.226 282.996 119.266 295.475 119.266 308.721C119.266 321.968 128.226 334.447 144.507 343.852C178.234 363.335 233.147 363.335 266.874 343.852C283.147 334.447 292.107 321.976 292.107 308.721C292.107 295.467 283.147 283.003 266.874 273.598C233.147 254.116 178.234 254.116 144.507 273.598Z" fill="url(#paint1_linear_2209_495)"/>
</g>
<g opacity="0.5" style="mix-blend-mode:multiply">
<path d="M180.421 295.393L146.051 315.238L190.29 340.786H205.587L180.421 295.393Z" fill="#003893"/>
</g>
<path d="M205.692 319.56L162.406 294.559L205.692 269.564L248.985 294.559L205.692 319.56Z" fill="#F5F9FF"/>
<path d="M205.692 340.809L162.406 315.807V294.559L205.692 319.56V340.809Z" fill="#9BA5B5"/>
<path d="M248.985 315.807L205.691 340.809V319.56L248.985 294.559V315.807Z" fill="#CAD2DE"/>
<path d="M243.879 312.534L227.355 322.079V312.519L243.879 302.981V312.534Z" fill="#251E28"/>
<path d="M241.518 309.135C241.518 309.8 240.979 310.642 240.322 311.027C239.657 311.411 239.125 311.182 239.125 310.517C239.125 309.852 239.664 309.01 240.322 308.625C240.986 308.241 241.518 308.47 241.518 309.135Z" fill="#9FFFFA"/>
<path d="M237.581 311.418C237.581 312.083 237.042 312.926 236.384 313.31C235.719 313.694 235.188 313.465 235.188 312.8C235.188 312.135 235.727 311.293 236.384 310.909C237.049 310.524 237.581 310.753 237.581 311.418Z" fill="#9FFFFA"/>
<path d="M233.635 313.694C233.635 314.359 233.096 315.201 232.439 315.585C231.781 315.969 231.242 315.74 231.242 315.075C231.242 314.41 231.781 313.568 232.439 313.184C233.096 312.8 233.635 313.029 233.635 313.694Z" fill="#9FFFFA"/>
<path d="M231.295 293.982L205.53 308.862L179.766 293.982L205.53 279.103L231.295 293.982Z" fill="#0656D7"/>
<mask id="mask0_2209_495" style="mask-type:luminance" maskUnits="userSpaceOnUse" x="176" y="277" width="59" height="34">
<g clip-path="url(#clip0_2209_495)">
<rect width="57.2689" height="33.0694" transform="translate(176.957 277.433)" fill="white"/>
<path d="M225.834 282.279C237.018 288.737 237.018 299.206 225.834 305.663C214.651 312.12 196.524 312.12 185.341 305.663C174.157 299.206 174.157 288.737 185.341 282.279C196.524 275.822 214.651 275.822 225.834 282.279Z" fill="url(#paint2_radial_2209_495)" style="mix-blend-mode:multiply"/>
</g>
</mask>
<g mask="url(#mask0_2209_495)">
<path d="M225.834 282.279C237.018 288.737 237.018 299.206 225.834 305.663C214.651 312.12 196.524 312.12 185.341 305.663C174.157 299.206 174.157 288.737 185.341 282.279C196.524 275.822 214.651 275.822 225.834 282.279Z" fill="url(#paint3_radial_2209_495)" style="mix-blend-mode:color-dodge"/>
</g>
<mask id="mask1_2209_495" style="mask-type:luminance" maskUnits="userSpaceOnUse" x="201" y="115" width="10" height="182">
<g clip-path="url(#clip1_2209_495)">
<rect width="8.38388" height="181.682" transform="translate(201.781 115.07)" fill="white"/>
<path d="M201.781 115.115V294.359C201.789 294.972 202.202 295.585 203.007 296.051C204.647 296.996 207.299 296.996 208.939 296.051C209.766 295.57 210.18 294.942 210.165 294.314V115.07L201.781 115.115Z" fill="url(#paint4_linear_2209_495)" style="mix-blend-mode:multiply"/>
</g>
</mask>
<g mask="url(#mask1_2209_495)">
<path d="M201.781 115.115V294.359C201.789 294.972 202.202 295.585 203.007 296.051C204.647 296.996 207.299 296.996 208.939 296.051C209.766 295.57 210.18 294.942 210.165 294.314V115.07L201.781 115.115Z" fill="url(#paint5_linear_2209_495)" style="mix-blend-mode:color-dodge"/>
</g>
<g style="mix-blend-mode:screen">
<path d="M-78.5751 388.166C-113.064 388.166 -147.552 380.586 -173.819 365.418C-199.325 350.694 -213.367 331.086 -213.367 310.207C-213.367 289.328 -199.325 269.727 -173.819 254.995C-121.285 224.666 -35.8506 224.666 16.6687 254.995C42.1749 269.719 56.2243 289.335 56.2243 310.207C56.2243 331.078 42.1749 350.686 16.6687 365.418C-9.59833 380.586 -44.0867 388.166 -78.5751 388.166ZM-78.5751 232.978C-112.923 232.978 -147.286 240.529 -173.442 255.63C-198.712 270.229 -212.636 289.608 -212.636 310.207C-212.636 330.805 -198.712 350.184 -173.442 364.783C-121.13 394.986 -36.0205 394.978 16.292 364.783C41.5692 350.184 55.4857 330.805 55.4857 310.207C55.4857 289.608 41.5692 270.229 16.292 255.63C-9.86424 240.529 -44.2123 232.978 -78.5751 232.978Z" fill="url(#paint6_linear_2209_495)"/>
</g>
<g style="mix-blend-mode:screen">
<path d="M-78.5677 359.19C-100.861 359.19 -123.154 354.292 -140.128 344.488C-156.637 334.957 -165.73 322.249 -165.73 308.721C-165.73 295.194 -156.645 282.494 -140.128 272.963C-106.186 253.377 -50.9637 253.369 -17.0071 272.963C-0.505277 282.494 8.59511 295.201 8.59511 308.721C8.59511 322.242 -0.497891 334.957 -17.0071 344.488C-33.9817 354.292 -56.2747 359.19 -78.5677 359.19ZM-139.936 273.28C-156.032 282.996 -164.992 295.475 -164.992 308.721C-164.992 321.968 -156.032 334.447 -139.752 343.852C-106.024 363.335 -51.1114 363.335 -17.3839 343.852C-1.111 334.447 7.84904 321.976 7.84904 308.721C7.84904 295.467 -1.111 283.003 -17.3839 273.598C-51.1114 254.116 -106.024 254.116 -139.752 273.598L-139.936 273.28Z" fill="url(#paint7_linear_2209_495)"/>
</g>
<g style="mix-blend-mode:screen">
<path d="M205.691 691C171.202 691 136.714 683.42 110.447 668.252C84.9479 653.527 70.8984 633.919 70.8984 613.047C70.8984 592.176 84.9405 572.568 110.447 557.828C162.966 527.515 248.4 527.507 300.934 557.828C326.441 572.56 340.49 592.161 340.49 613.047C340.49 633.934 326.441 653.52 300.934 668.252C274.667 683.42 240.179 691 205.691 691ZM205.691 535.819C171.342 535.819 136.98 543.37 110.823 558.464C85.5462 573.063 71.6297 592.449 71.6297 613.047C71.6297 633.646 85.5536 653.017 110.823 667.616C163.136 697.819 248.245 697.819 300.558 667.616C325.835 653.025 339.751 633.646 339.751 613.047C339.751 592.449 325.835 573.063 300.558 558.464C274.401 543.362 240.053 535.819 205.691 535.819Z" fill="url(#paint8_linear_2209_495)"/>
</g>
<g style="mix-blend-mode:screen">
<path d="M205.698 662.023C183.398 662.023 161.112 657.125 144.137 647.321C127.628 637.79 118.535 625.083 118.535 611.562C118.535 598.042 127.621 585.334 144.137 575.803C178.087 556.203 233.309 556.195 267.258 575.803C283.76 585.334 292.861 598.042 292.861 611.562C292.861 625.083 283.768 637.79 267.258 647.321C250.284 657.125 227.991 662.023 205.698 662.023ZM205.698 561.832C183.538 561.832 161.378 566.701 144.514 576.439C128.234 585.844 119.274 598.315 119.274 611.562C119.274 624.809 128.234 637.28 144.514 646.686C178.242 666.168 233.154 666.168 266.882 646.686C283.155 637.288 292.115 624.809 292.115 611.562C292.115 598.315 283.155 585.844 266.882 576.439C250.018 566.701 227.858 561.832 205.698 561.832Z" fill="url(#paint9_linear_2209_495)"/>
</g>
<g opacity="0.5" style="mix-blend-mode:multiply">
<path d="M180.421 598.552L146.051 618.396L190.29 643.945H205.587L180.421 598.552Z" fill="#003893"/>
</g>
<path d="M205.692 622.718L162.406 597.724L205.692 572.723L248.985 597.724L205.692 622.718Z" fill="#F5F9FF"/>
<path d="M205.692 643.967L162.406 618.972V597.724L205.692 622.718V643.967Z" fill="#9BA5B5"/>
<path d="M248.985 618.972L205.691 643.967V622.718L248.985 597.724V618.972Z" fill="#CAD2DE"/>
<path d="M243.879 615.699L227.355 625.238V615.677L243.879 606.139V615.699Z" fill="#251E28"/>
<path d="M241.784 611.695C241.784 612.36 241.245 613.202 240.587 613.587C239.922 613.971 239.391 613.742 239.391 613.077C239.391 612.412 239.93 611.57 240.587 611.185C241.252 610.801 241.784 611.03 241.784 611.695Z" fill="#9FFFFA"/>
<path d="M237.839 613.971C237.839 614.636 237.299 615.478 236.642 615.862C235.977 616.246 235.445 616.017 235.445 615.352C235.445 614.687 235.985 613.845 236.642 613.461C237.307 613.077 237.839 613.306 237.839 613.971Z" fill="#9FFFFA"/>
<path d="M233.893 616.246C233.893 616.911 233.354 617.754 232.697 618.138C232.032 618.522 231.5 618.293 231.5 617.628C231.5 616.963 232.039 616.121 232.697 615.737C233.361 615.352 233.893 615.582 233.893 616.246Z" fill="#9FFFFA"/>
<path d="M231.295 596.823L205.53 611.703L179.766 596.823L205.53 581.943L231.295 596.823Z" fill="#0656D7"/>
<mask id="mask2_2209_495" style="mask-type:luminance" maskUnits="userSpaceOnUse" x="176" y="580" width="59" height="34">
<g clip-path="url(#clip2_2209_495)">
<rect width="57.2689" height="33.0694" transform="translate(176.957 580.273)" fill="white"/>
<path d="M225.834 585.12C237.018 591.577 237.018 602.046 225.834 608.503C214.651 614.961 196.524 614.961 185.341 608.503C174.157 602.046 174.157 591.577 185.341 585.12C196.524 578.663 214.651 578.663 225.834 585.12Z" fill="url(#paint10_radial_2209_495)" style="mix-blend-mode:multiply"/>
</g>
</mask>
<g mask="url(#mask2_2209_495)">
<path d="M225.834 585.12C237.018 591.577 237.018 602.046 225.834 608.503C214.651 614.961 196.524 614.961 185.341 608.503C174.157 602.046 174.157 591.577 185.341 585.12C196.524 578.663 214.651 578.663 225.834 585.12Z" fill="url(#paint11_radial_2209_495)" style="mix-blend-mode:color-dodge"/>
</g>
<mask id="mask3_2209_495" style="mask-type:luminance" maskUnits="userSpaceOnUse" x="201" y="417" width="10" height="183">
<g clip-path="url(#clip3_2209_495)">
<rect width="8.38388" height="181.682" transform="translate(201.781 417.911)" fill="white"/>
<path d="M201.781 417.963V597.207C201.789 597.82 202.202 598.426 203.007 598.899C204.647 599.845 207.299 599.845 208.939 598.899C209.766 598.419 210.18 597.791 210.165 597.163V417.918L201.781 417.963Z" fill="url(#paint12_linear_2209_495)" style="mix-blend-mode:multiply"/>
</g>
</mask>
<g mask="url(#mask3_2209_495)">
<path d="M201.781 417.963V597.207C201.789 597.82 202.202 598.426 203.007 598.899C204.647 599.845 207.299 599.845 208.939 598.899C209.766 598.419 210.18 597.791 210.165 597.163V417.918L201.781 417.963Z" fill="url(#paint13_linear_2209_495)" style="mix-blend-mode:color-dodge"/>
</g>
<g style="mix-blend-mode:screen">
<path d="M357.206 539.181C322.717 539.181 288.222 531.6 261.962 516.432C236.456 501.708 222.406 482.1 222.406 461.221C222.406 440.342 236.456 420.741 261.962 406.009C314.474 375.681 399.93 375.681 452.442 406.009C477.948 420.734 491.998 440.349 491.998 461.221C491.998 482.092 477.948 501.708 452.442 516.432C426.182 531.6 391.687 539.181 357.206 539.181ZM357.206 384C322.85 384 288.487 391.55 262.339 406.652C237.061 421.251 223.145 440.63 223.145 461.228C223.145 481.826 237.061 501.205 262.339 515.805C314.636 546.007 399.768 546.007 452.065 515.805C477.343 501.205 491.259 481.826 491.259 461.228C491.259 440.63 477.343 421.251 452.065 406.652C425.917 391.55 391.569 384 357.206 384Z" fill="url(#paint14_linear_2209_495)"/>
</g>
<g style="mix-blend-mode:screen">
<path d="M357.206 510.204C334.913 510.204 312.62 505.306 295.645 495.502C279.136 485.971 270.036 473.263 270.043 459.736C270.043 446.215 279.129 433.515 295.645 423.984C329.594 404.376 384.817 404.376 418.766 423.984C435.276 433.515 444.369 446.215 444.369 459.736C444.369 473.263 435.283 485.971 418.766 495.502C401.792 505.306 379.499 510.204 357.206 510.204ZM296.022 424.627C279.749 434.018 270.782 446.496 270.782 459.743C270.782 472.99 279.742 485.469 296.022 494.874C329.75 514.356 384.662 514.356 418.39 494.874C434.67 485.476 443.63 472.998 443.63 459.743C443.63 446.489 434.662 434.025 418.39 424.627C384.662 405.145 329.75 405.145 296.022 424.627Z" fill="url(#paint15_linear_2209_495)"/>
</g>
<g opacity="0.5" style="mix-blend-mode:multiply">
<path d="M332.038 446.902L297.668 466.754L341.907 492.303H357.205L332.038 446.902Z" fill="#003893"/>
</g>
<path d="M357.204 471.077L313.918 446.075L357.204 421.081L400.497 446.075L357.204 471.077Z" fill="#F5F9FF"/>
<path d="M357.204 492.325L313.918 467.324V446.075L357.204 471.077V492.325Z" fill="#9BA5B5"/>
<path d="M400.496 467.324L357.203 492.325V471.077L400.496 446.075V467.324Z" fill="#CAD2DE"/>
<path d="M396.185 463.711L379.668 473.256V463.696L396.185 454.15V463.711Z" fill="#251E28"/>
<path d="M394.323 459.684C394.323 460.349 393.784 461.191 393.126 461.575C392.462 461.959 391.93 461.73 391.93 461.066C391.93 460.401 392.469 459.558 393.126 459.174C393.784 458.79 394.323 459.019 394.323 459.684Z" fill="#9FFFFA"/>
<path d="M390.382 461.967C390.382 462.632 389.842 463.474 389.185 463.858C388.52 464.242 387.988 464.013 387.988 463.348C387.988 462.683 388.528 461.841 389.185 461.457C389.85 461.073 390.382 461.302 390.382 461.967Z" fill="#9FFFFA"/>
<path d="M386.436 464.243C386.436 464.907 385.897 465.75 385.24 466.134C384.575 466.518 384.043 466.289 384.043 465.624C384.043 464.959 384.582 464.117 385.24 463.733C385.904 463.349 386.436 463.578 386.436 464.243Z" fill="#9FFFFA"/>
<path d="M383.045 445.093L357.273 459.972L331.508 445.093L357.273 430.213L383.045 445.093Z" fill="#0656D7"/>
<mask id="mask4_2209_495" style="mask-type:luminance" maskUnits="userSpaceOnUse" x="328" y="428" width="58" height="34">
<g clip-path="url(#clip4_2209_495)">
<rect width="57.2689" height="33.0694" transform="translate(328.699 428.543)" fill="white"/>
<path d="M377.577 433.382C388.76 439.839 388.76 450.308 377.577 456.766C366.393 463.223 348.266 463.223 337.083 456.766C325.899 450.308 325.899 439.839 337.083 433.382C348.266 426.925 366.393 426.925 377.577 433.382Z" fill="url(#paint16_radial_2209_495)" style="mix-blend-mode:multiply"/>
</g>
</mask>
<g mask="url(#mask4_2209_495)">
<path d="M377.577 433.382C388.76 439.839 388.76 450.308 377.577 456.766C366.393 463.223 348.266 463.223 337.083 456.766C325.899 450.308 325.899 439.839 337.083 433.382C348.266 426.925 366.393 426.925 377.577 433.382Z" fill="url(#paint17_radial_2209_495)" style="mix-blend-mode:color-dodge"/>
</g>
<mask id="mask5_2209_495" style="mask-type:luminance" maskUnits="userSpaceOnUse" x="353" y="266" width="9" height="182">
<g clip-path="url(#clip5_2209_495)">
<rect width="8.38388" height="181.682" transform="translate(353.523 266.181)" fill="white"/>
<path d="M353.523 266.225V445.469C353.531 446.082 353.944 446.688 354.75 447.161C356.389 448.107 359.041 448.107 360.681 447.161C361.508 446.681 361.922 446.053 361.907 445.425V266.181L353.523 266.225Z" fill="url(#paint18_linear_2209_495)" style="mix-blend-mode:multiply"/>
</g>
</mask>
<g mask="url(#mask5_2209_495)">
<path d="M353.523 266.225V445.469C353.531 446.082 353.944 446.688 354.75 447.161C356.389 448.107 359.041 448.107 360.681 447.161C361.508 446.681 361.922 446.053 361.907 445.425V266.181L353.523 266.225Z" fill="url(#paint19_linear_2209_495)" style="mix-blend-mode:color-dodge"/>
</g>
<g style="mix-blend-mode:screen">
<path d="M-78.5751 691C-113.064 691 -147.552 683.42 -173.819 668.252C-199.318 653.527 -213.367 633.919 -213.367 613.047C-213.367 592.176 -199.325 572.568 -173.819 557.828C-121.292 527.515 -35.858 527.507 16.6687 557.828C42.1749 572.56 56.2243 592.161 56.2243 613.047C56.2243 633.934 42.1749 653.52 16.6687 668.252C-9.59833 683.42 -44.0867 691 -78.5751 691ZM-78.5751 535.819C-112.923 535.819 -147.286 543.37 -173.442 558.464C-198.719 573.063 -212.636 592.449 -212.636 613.047C-212.636 633.646 -198.712 653.017 -173.442 667.616C-121.13 697.819 -36.0205 697.819 16.292 667.616C41.5692 653.025 55.4857 633.646 55.4857 613.047C55.4857 592.449 41.5692 573.063 16.292 558.464C-9.86424 543.362 -44.2123 535.819 -78.5751 535.819Z" fill="url(#paint20_linear_2209_495)"/>
</g>
<g style="mix-blend-mode:screen">
<path d="M-78.5677 662.023C-100.861 662.023 -123.154 657.125 -140.128 647.321C-156.637 637.79 -165.73 625.083 -165.73 611.562C-165.73 598.042 -156.645 585.334 -140.128 575.803C-106.186 556.203 -50.9637 556.195 -17.0071 575.803C-0.505277 585.334 8.59511 598.042 8.59511 611.562C8.59511 625.083 -0.497891 637.79 -17.0071 647.321C-33.9817 657.125 -56.2747 662.023 -78.5677 662.023ZM-78.5677 561.832C-100.728 561.832 -122.888 566.701 -139.752 576.439C-156.032 585.844 -164.992 598.315 -164.992 611.562C-164.992 624.809 -156.032 637.28 -139.752 646.686C-106.024 666.168 -51.1114 666.168 -17.3839 646.686C-1.111 637.288 7.84904 624.809 7.84904 611.562C7.84904 598.315 -1.111 585.844 -17.3839 576.439C-34.2476 566.701 -56.4076 561.832 -78.5677 561.832Z" fill="url(#paint21_linear_2209_495)"/>
</g>
<g opacity="0.5" style="mix-blend-mode:multiply">
<path d="M7.20526 446.622L-61.5352 486.318L26.9351 537.407H63.6986L7.20526 446.622Z" fill="#003893"/>
</g>
<path d="M63.6999 417.911L-27.5625 365.211L63.6999 312.519L154.955 365.211L63.6999 417.911Z" fill="#F5F9FF"/>
<path d="M63.6999 537.407L-27.5625 484.708V365.211L63.6999 417.911V537.407Z" fill="#9BA5B5"/>
<path d="M-15.0039 477.142V386.97L51.1438 425.167V515.339L-15.0039 477.142Z" fill="#1B161E"/>
<path d="M154.954 484.708L63.6992 537.407V417.911L154.954 365.211V484.708Z" fill="#CAD2DE"/>
<path d="M76.2578 425.167L142.398 386.97V477.142L76.2578 515.339V425.167Z" fill="#251E28"/>
<path d="M85.4647 428.402C85.4647 429.134 84.8738 430.065 84.1425 430.486C83.4113 430.907 82.8203 430.656 82.8203 429.924C82.8203 429.193 83.4113 428.262 84.1425 427.841C84.8738 427.42 85.4647 427.671 85.4647 428.402Z" fill="#9FFFFA"/>
<path d="M98.1913 421.058C98.1913 421.79 97.6004 422.721 96.8691 423.142C96.1378 423.563 95.5469 423.312 95.5469 422.58C95.5469 421.849 96.1378 420.918 96.8691 420.497C97.6004 420.076 98.1913 420.334 98.1913 421.058Z" fill="#368781"/>
<path d="M110.91 413.707C110.91 414.439 110.319 415.369 109.588 415.791C108.857 416.212 108.266 415.96 108.266 415.229C108.266 414.498 108.857 413.567 109.588 413.146C110.319 412.724 110.91 412.976 110.91 413.707Z" fill="#368781"/>
<path d="M123.633 406.364C123.633 407.095 123.042 408.026 122.311 408.447C121.579 408.868 120.988 408.617 120.988 407.886C120.988 407.154 121.579 406.223 122.311 405.802C123.042 405.381 123.633 405.64 123.633 406.364Z" fill="#9FFFFA"/>
<path d="M136.351 399.012C136.351 399.744 135.761 400.675 135.029 401.096C134.298 401.517 133.707 401.266 133.707 400.534C133.707 399.803 134.298 398.872 135.029 398.451C135.761 398.03 136.351 398.281 136.351 399.012Z" fill="#368781"/>
<path d="M85.4647 438.797C85.4647 439.529 84.8738 440.46 84.1425 440.881C83.4113 441.302 82.8203 441.051 82.8203 440.319C82.8203 439.588 83.4113 438.657 84.1425 438.236C84.8738 437.815 85.4647 438.066 85.4647 438.797Z" fill="#9FFFFA"/>
<path d="M98.1913 431.454C98.1913 432.185 97.6004 433.116 96.8691 433.537C96.1378 433.958 95.5469 433.707 95.5469 432.976C95.5469 432.244 96.1378 431.313 96.8691 430.892C97.6004 430.471 98.1913 430.722 98.1913 431.454Z" fill="#368781"/>
<path d="M110.91 424.103C110.91 424.834 110.319 425.765 109.588 426.186C108.857 426.607 108.266 426.356 108.266 425.625C108.266 424.893 108.857 423.962 109.588 423.541C110.319 423.12 110.91 423.371 110.91 424.103Z" fill="#368781"/>
<path d="M123.633 416.759C123.633 417.49 123.042 418.421 122.311 418.842C121.579 419.263 120.988 419.012 120.988 418.281C120.988 417.549 121.579 416.618 122.311 416.197C123.042 415.776 123.633 416.027 123.633 416.759Z" fill="#9FFFFA"/>
<path d="M136.351 409.415C136.351 410.146 135.761 411.077 135.029 411.498C134.298 411.919 133.707 411.668 133.707 410.937C133.707 410.205 134.298 409.274 135.029 408.853C135.761 408.432 136.351 408.683 136.351 409.415Z" fill="#9FFFFA"/>
<path d="M85.4647 449.193C85.4647 449.924 84.8738 450.855 84.1425 451.276C83.4113 451.697 82.8203 451.446 82.8203 450.722C82.8203 449.998 83.4113 449.06 84.1425 448.639C84.8738 448.218 85.4647 448.461 85.4647 449.193Z" fill="#368781"/>
<path d="M98.1913 441.849C98.1913 442.58 97.6004 443.511 96.8691 443.932C96.1378 444.353 95.5469 444.102 95.5469 443.378C95.5469 442.654 96.1378 441.716 96.8691 441.295C97.6004 440.874 98.1913 441.125 98.1913 441.849Z" fill="#9FFFFA"/>
<path d="M110.91 434.498C110.91 435.229 110.319 436.16 109.588 436.581C108.857 437.002 108.266 436.751 108.266 436.027C108.266 435.303 108.857 434.365 109.588 433.943C110.319 433.522 110.91 433.766 110.91 434.498Z" fill="#9FFFFA"/>
<path d="M123.633 427.154C123.633 427.885 123.042 428.816 122.311 429.237C121.579 429.658 120.988 429.407 120.988 428.683C120.988 427.959 121.579 427.021 122.311 426.599C123.042 426.178 123.633 426.43 123.633 427.154Z" fill="#368781"/>
<path d="M136.351 419.81C136.351 420.541 135.761 421.472 135.029 421.893C134.298 422.315 133.707 422.063 133.707 421.339C133.707 420.615 134.298 419.677 135.029 419.256C135.761 418.835 136.351 419.086 136.351 419.817V419.81Z" fill="#9FFFFA"/>
<path d="M85.4647 459.588C85.4647 460.319 84.8738 461.25 84.1425 461.671C83.4113 462.092 82.8203 461.841 82.8203 461.117C82.8203 460.393 83.4113 459.455 84.1425 459.034C84.8738 458.613 85.4647 458.856 85.4647 459.588Z" fill="#9FFFFA"/>
<path d="M98.1913 452.244C98.1913 452.975 97.6004 453.906 96.8691 454.327C96.1378 454.749 95.5469 454.497 95.5469 453.766C95.5469 453.034 96.1378 452.104 96.8691 451.682C97.6004 451.261 98.1913 451.513 98.1913 452.237V452.244Z" fill="#9FFFFA"/>
<path d="M110.91 444.893C110.91 445.624 110.319 446.555 109.588 446.976C108.857 447.397 108.266 447.146 108.266 446.415C108.266 445.683 108.857 444.752 109.588 444.331C110.319 443.91 110.91 444.161 110.91 444.893Z" fill="#9FFFFA"/>
<path d="M123.633 437.549C123.633 438.28 123.042 439.211 122.311 439.632C121.579 440.053 120.988 439.802 120.988 439.071C120.988 438.339 121.579 437.408 122.311 436.987C123.042 436.566 123.633 436.825 123.633 437.549Z" fill="#9FFFFA"/>
<path d="M136.351 430.205C136.351 430.937 135.761 431.867 135.029 432.289C134.298 432.71 133.707 432.459 133.707 431.727C133.707 430.996 134.298 430.065 135.029 429.644C135.761 429.223 136.351 429.474 136.351 430.205Z" fill="#368781"/>
<path d="M85.4647 469.983C85.4647 470.714 84.8738 471.645 84.1425 472.066C83.4113 472.488 82.8203 472.236 82.8203 471.505C82.8203 470.774 83.4113 469.843 84.1425 469.421C84.8738 469 85.4647 469.252 85.4647 469.983Z" fill="#368781"/>
<path d="M98.1913 462.639C98.1913 463.371 97.6004 464.302 96.8691 464.723C96.1378 465.144 95.5469 464.893 95.5469 464.161C95.5469 463.43 96.1378 462.499 96.8691 462.078C97.6004 461.657 98.1913 461.908 98.1913 462.639Z" fill="#368781"/>
<path d="M110.91 455.288C110.91 456.019 110.319 456.95 109.588 457.371C108.857 457.792 108.266 457.541 108.266 456.81C108.266 456.078 108.857 455.147 109.588 454.726C110.319 454.305 110.91 454.556 110.91 455.288Z" fill="#9FFFFA"/>
<path d="M123.633 447.944C123.633 448.675 123.042 449.606 122.311 450.027C121.579 450.448 120.988 450.197 120.988 449.466C120.988 448.734 121.579 447.804 122.311 447.382C123.042 446.961 123.633 447.212 123.633 447.944Z" fill="#368781"/>
<path d="M136.351 440.6C136.351 441.332 135.761 442.262 135.029 442.684C134.298 443.105 133.707 442.854 133.707 442.122C133.707 441.391 134.298 440.46 135.029 440.039C135.761 439.618 136.351 439.869 136.351 440.6Z" fill="#9FFFFA"/>
<path d="M85.4647 480.378C85.4647 481.109 84.8738 482.04 84.1425 482.461C83.4113 482.883 82.8203 482.631 82.8203 481.9C82.8203 481.169 83.4113 480.238 84.1425 479.816C84.8738 479.395 85.4647 479.647 85.4647 480.378Z" fill="#9FFFFA"/>
<path d="M98.1913 473.034C98.1913 473.766 97.6004 474.696 96.8691 475.118C96.1378 475.539 95.5469 475.288 95.5469 474.564C95.5469 473.839 96.1378 472.901 96.8691 472.48C97.6004 472.059 98.1913 472.303 98.1913 473.034Z" fill="#9FFFFA"/>
<path d="M110.91 465.69C110.91 466.422 110.319 467.353 109.588 467.774C108.857 468.195 108.266 467.944 108.266 467.212C108.266 466.481 108.857 465.55 109.588 465.129C110.319 464.708 110.91 464.959 110.91 465.69Z" fill="#9FFFFA"/>
<path d="M123.633 458.339C123.633 459.071 123.042 460.002 122.311 460.423C121.579 460.844 120.988 460.593 120.988 459.869C120.988 459.145 121.579 458.206 122.311 457.785C123.042 457.364 123.633 457.608 123.633 458.339Z" fill="#9FFFFA"/>
<path d="M136.351 450.995C136.351 451.727 135.761 452.658 135.029 453.079C134.298 453.5 133.707 453.249 133.707 452.517C133.707 451.786 134.298 450.855 135.029 450.434C135.761 450.013 136.351 450.264 136.351 450.995Z" fill="#9FFFFA"/>
<path d="M85.4647 490.773C85.4647 491.505 84.8738 492.436 84.1425 492.857C83.4113 493.278 82.8203 493.027 82.8203 492.303C82.8203 491.579 83.4113 490.64 84.1425 490.219C84.8738 489.798 85.4647 490.049 85.4647 490.773Z" fill="#368781"/>
<path d="M98.1913 483.429C98.1913 484.161 97.6004 485.092 96.8691 485.513C96.1378 485.934 95.5469 485.683 95.5469 484.959C95.5469 484.235 96.1378 483.296 96.8691 482.875C97.6004 482.454 98.1913 482.705 98.1913 483.429Z" fill="#368781"/>
<path d="M110.91 476.086C110.91 476.817 110.319 477.748 109.588 478.169C108.857 478.59 108.266 478.339 108.266 477.608C108.266 476.876 108.857 475.945 109.588 475.524C110.319 475.103 110.91 475.362 110.91 476.086Z" fill="#368781"/>
<path d="M123.633 468.734C123.633 469.466 123.042 470.396 122.311 470.818C121.579 471.239 120.988 470.988 120.988 470.263C120.988 469.539 121.579 468.601 122.311 468.18C123.042 467.759 123.633 468.01 123.633 468.734Z" fill="#9FFFFA"/>
<path d="M136.351 461.39C136.351 462.122 135.761 463.053 135.029 463.474C134.298 463.895 133.707 463.644 133.707 462.912C133.707 462.181 134.298 461.25 135.029 460.829C135.761 460.408 136.351 460.666 136.351 461.39Z" fill="#368781"/>
<path d="M85.4647 501.168C85.4647 501.9 84.8738 502.831 84.1425 503.252C83.4113 503.673 82.8203 503.422 82.8203 502.69C82.8203 501.959 83.4113 501.028 84.1425 500.607C84.8738 500.186 85.4647 500.437 85.4647 501.168Z" fill="#368781"/>
<path d="M98.1913 493.824C98.1913 494.556 97.6004 495.487 96.8691 495.908C96.1378 496.329 95.5469 496.078 95.5469 495.346C95.5469 494.615 96.1378 493.684 96.8691 493.263C97.6004 492.842 98.1913 493.093 98.1913 493.824Z" fill="#9FFFFA"/>
<path d="M110.91 486.481C110.91 487.212 110.319 488.143 109.588 488.564C108.857 488.985 108.266 488.734 108.266 488.003C108.266 487.271 108.857 486.34 109.588 485.919C110.319 485.498 110.91 485.749 110.91 486.481Z" fill="#9FFFFA"/>
<path d="M123.633 479.129C123.633 479.861 123.042 480.792 122.311 481.213C121.579 481.634 120.988 481.383 120.988 480.651C120.988 479.92 121.579 478.989 122.311 478.568C123.042 478.147 123.633 478.398 123.633 479.129Z" fill="#368781"/>
<path d="M136.351 471.785C136.351 472.517 135.761 473.448 135.029 473.869C134.298 474.29 133.707 474.039 133.707 473.307C133.707 472.576 134.298 471.645 135.029 471.224C135.761 470.803 136.351 471.061 136.351 471.785Z" fill="#9FFFFA"/>
<path d="M42.1875 428.402C42.1875 429.134 42.7784 430.065 43.5097 430.486C44.241 430.907 44.8319 430.656 44.8319 429.924C44.8319 429.193 44.241 428.262 43.5097 427.841C42.7784 427.42 42.1875 427.671 42.1875 428.402Z" fill="#368781"/>
<path d="M29.4688 421.058C29.4688 421.79 30.0597 422.721 30.791 423.142C31.5223 423.563 32.1132 423.312 32.1132 422.58C32.1132 421.849 31.5223 420.918 30.791 420.497C30.0597 420.076 29.4688 420.334 29.4688 421.058Z" fill="#9FFFFA"/>
<path d="M16.7461 413.707C16.7461 414.439 17.337 415.369 18.0683 415.791C18.7996 416.212 19.3905 415.96 19.3905 415.229C19.3905 414.498 18.7996 413.567 18.0683 413.146C17.337 412.724 16.7461 412.976 16.7461 413.707Z" fill="#368781"/>
<path d="M4.02734 406.364C4.02734 407.095 4.61828 408.026 5.34957 408.447C6.08085 408.868 6.67176 408.617 6.67176 407.886C6.67176 407.154 6.08085 406.223 5.34957 405.802C4.61828 405.381 4.02734 405.64 4.02734 406.364Z" fill="#368781"/>
<path d="M42.1875 438.797C42.1875 439.529 42.7784 440.46 43.5097 440.881C44.241 441.302 44.8319 441.051 44.8319 440.319C44.8319 439.588 44.241 438.657 43.5097 438.236C42.7784 437.815 42.1875 438.066 42.1875 438.797Z" fill="#368781"/>
<path d="M29.4688 431.454C29.4688 432.185 30.0597 433.116 30.791 433.537C31.5223 433.958 32.1132 433.707 32.1132 432.976C32.1132 432.244 31.5223 431.313 30.791 430.892C30.0597 430.471 29.4688 430.722 29.4688 431.454Z" fill="#9FFFFA"/>
<path d="M16.7461 424.103C16.7461 424.834 17.337 425.765 18.0683 426.186C18.7996 426.607 19.3905 426.356 19.3905 425.625C19.3905 424.893 18.7996 423.962 18.0683 423.541C17.337 423.12 16.7461 423.371 16.7461 424.103Z" fill="#368781"/>
<path d="M4.02734 416.759C4.02734 417.49 4.61828 418.421 5.34957 418.842C6.08085 419.263 6.67176 419.012 6.67176 418.281C6.67176 417.549 6.08085 416.618 5.34957 416.197C4.61828 415.776 4.02734 416.027 4.02734 416.759Z" fill="#368781"/>
<path d="M42.1875 449.193C42.1875 449.924 42.7784 450.855 43.5097 451.276C44.241 451.697 44.8319 451.446 44.8319 450.722C44.8319 449.998 44.241 449.06 43.5097 448.639C42.7784 448.218 42.1875 448.461 42.1875 449.193Z" fill="#368781"/>
<path d="M29.4688 441.849C29.4688 442.58 30.0597 443.511 30.791 443.932C31.5223 444.353 32.1132 444.102 32.1132 443.378C32.1132 442.654 31.5223 441.716 30.791 441.295C30.0597 440.874 29.4688 441.125 29.4688 441.849Z" fill="#9FFFFA"/>
<path d="M16.7461 434.498C16.7461 435.229 17.337 436.16 18.0683 436.581C18.7996 437.002 19.3905 436.751 19.3905 436.027C19.3905 435.303 18.7996 434.365 18.0683 433.943C17.337 433.522 16.7461 433.766 16.7461 434.498Z" fill="#9FFFFA"/>
<path d="M4.02734 427.154C4.02734 427.885 4.61828 428.816 5.34957 429.238C6.08085 429.659 6.67176 429.407 6.67176 428.683C6.67176 427.959 6.08085 427.021 5.34957 426.6C4.61828 426.179 4.02734 426.43 4.02734 427.154Z" fill="#9FFFFA"/>
<path d="M42.1875 459.588C42.1875 460.319 42.7784 461.25 43.5097 461.671C44.241 462.092 44.8319 461.841 44.8319 461.117C44.8319 460.393 44.241 459.455 43.5097 459.034C42.7784 458.613 42.1875 458.856 42.1875 459.588Z" fill="#9FFFFA"/>
<path d="M29.4688 452.244C29.4688 452.975 30.0597 453.906 30.791 454.327C31.5223 454.749 32.1132 454.497 32.1132 453.766C32.1132 453.034 31.5223 452.104 30.791 451.682C30.0597 451.261 29.4688 451.513 29.4688 452.237V452.244Z" fill="#9FFFFA"/>
<path d="M16.7461 444.893C16.7461 445.624 17.337 446.555 18.0683 446.976C18.7996 447.397 19.3905 447.146 19.3905 446.415C19.3905 445.683 18.7996 444.752 18.0683 444.331C17.337 443.91 16.7461 444.161 16.7461 444.893Z" fill="#9FFFFA"/>
<path d="M4.02734 437.549C4.02734 438.281 4.61828 439.211 5.34957 439.633C6.08085 440.054 6.67176 439.803 6.67176 439.071C6.67176 438.34 6.08085 437.409 5.34957 436.988C4.61828 436.567 4.02734 436.825 4.02734 437.549Z" fill="#9FFFFA"/>
<path d="M42.1875 469.983C42.1875 470.714 42.7784 471.645 43.5097 472.066C44.241 472.488 44.8319 472.236 44.8319 471.505C44.8319 470.774 44.241 469.843 43.5097 469.421C42.7784 469 42.1875 469.252 42.1875 469.983Z" fill="#9FFFFA"/>
<path d="M29.4688 462.639C29.4688 463.371 30.0597 464.302 30.791 464.723C31.5223 465.144 32.1132 464.893 32.1132 464.161C32.1132 463.43 31.5223 462.499 30.791 462.078C30.0597 461.657 29.4688 461.908 29.4688 462.639Z" fill="#9FFFFA"/>
<path d="M16.7461 455.288C16.7461 456.019 17.337 456.95 18.0683 457.371C18.7996 457.792 19.3905 457.541 19.3905 456.81C19.3905 456.078 18.7996 455.147 18.0683 454.726C17.337 454.305 16.7461 454.556 16.7461 455.288Z" fill="#9FFFFA"/>
<path d="M4.02734 447.944C4.02734 448.676 4.61828 449.607 5.34957 450.028C6.08085 450.449 6.67176 450.198 6.67176 449.466C6.67176 448.735 6.08085 447.804 5.34957 447.383C4.61828 446.962 4.02734 447.213 4.02734 447.944Z" fill="#368781"/>
<path d="M42.1875 480.378C42.1875 481.109 42.7784 482.04 43.5097 482.461C44.241 482.883 44.8319 482.631 44.8319 481.9C44.8319 481.169 44.241 480.238 43.5097 479.816C42.7784 479.395 42.1875 479.647 42.1875 480.378Z" fill="#9FFFFA"/>
<path d="M29.4688 473.034C29.4688 473.766 30.0597 474.696 30.791 475.118C31.5223 475.539 32.1132 475.288 32.1132 474.564C32.1132 473.839 31.5223 472.901 30.791 472.48C30.0597 472.059 29.4688 472.303 29.4688 473.034Z" fill="#9FFFFA"/>
<path d="M16.7461 465.69C16.7461 466.422 17.337 467.353 18.0683 467.774C18.7996 468.195 19.3905 467.944 19.3905 467.212C19.3905 466.481 18.7996 465.55 18.0683 465.129C17.337 464.708 16.7461 464.959 16.7461 465.69Z" fill="#9FFFFA"/>
<path d="M4.02734 458.339C4.02734 459.071 4.61828 460.002 5.34957 460.423C6.08085 460.844 6.67176 460.593 6.67176 459.869C6.67176 459.145 6.08085 458.206 5.34957 457.785C4.61828 457.364 4.02734 457.608 4.02734 458.339Z" fill="#9FFFFA"/>
<path d="M42.1875 490.773C42.1875 491.505 42.7784 492.436 43.5097 492.857C44.241 493.278 44.8319 493.027 44.8319 492.303C44.8319 491.579 44.241 490.64 43.5097 490.219C42.7784 489.798 42.1875 490.049 42.1875 490.773Z" fill="#9FFFFA"/>
<path d="M29.4688 483.429C29.4688 484.161 30.0597 485.092 30.791 485.513C31.5223 485.934 32.1132 485.683 32.1132 484.959C32.1132 484.235 31.5223 483.296 30.791 482.875C30.0597 482.454 29.4688 482.705 29.4688 483.429Z" fill="#9FFFFA"/>
<path d="M16.7461 476.086C16.7461 476.817 17.337 477.748 18.0683 478.169C18.7996 478.59 19.3905 478.339 19.3905 477.608C19.3905 476.876 18.7996 475.945 18.0683 475.524C17.337 475.103 16.7461 475.362 16.7461 476.086Z" fill="#9FFFFA"/>
<path d="M4.02734 468.734C4.02734 469.466 4.61828 470.396 5.34957 470.818C6.08085 471.239 6.67176 470.988 6.67176 470.263C6.67176 469.539 6.08085 468.601 5.34957 468.18C4.61828 467.759 4.02734 468.01 4.02734 468.734Z" fill="#9FFFFA"/>
<path d="M42.1875 501.168C42.1875 501.9 42.7784 502.831 43.5097 503.252C44.241 503.673 44.8319 503.422 44.8319 502.69C44.8319 501.959 44.241 501.028 43.5097 500.607C42.7784 500.186 42.1875 500.437 42.1875 501.168Z" fill="#9FFFFA"/>
<path d="M29.4688 493.825C29.4688 494.556 30.0597 495.487 30.791 495.908C31.5223 496.329 32.1132 496.078 32.1132 495.347C32.1132 494.615 31.5223 493.684 30.791 493.263C30.0597 492.842 29.4688 493.093 29.4688 493.825Z" fill="#9FFFFA"/>
<path d="M16.7461 486.481C16.7461 487.212 17.337 488.143 18.0683 488.564C18.7996 488.985 19.3905 488.734 19.3905 488.003C19.3905 487.271 18.7996 486.34 18.0683 485.919C17.337 485.498 16.7461 485.749 16.7461 486.481Z" fill="#9FFFFA"/>
<path d="M4.02734 479.129C4.02734 479.861 4.61828 480.792 5.34957 481.213C6.08085 481.634 6.67176 481.383 6.67176 480.651C6.67176 479.92 6.08085 478.989 5.34957 478.568C4.61828 478.147 4.02734 478.398 4.02734 479.129Z" fill="#368781"/>
<path d="M89.5529 365.307L63.7882 380.187L38.0234 365.307L63.7882 350.428L89.5529 365.307Z" fill="#0656D7"/>
<mask id="mask6_2209_495" style="mask-type:luminance" maskUnits="userSpaceOnUse" x="35" y="348" width="58" height="34">
<g clip-path="url(#clip6_2209_495)">
<rect width="57.2689" height="33.0694" transform="translate(35.2148 348.758)" fill="white"/>
<path d="M84.0923 353.605C95.2757 360.062 95.2757 370.531 84.0923 376.989C72.9089 383.446 54.7819 383.446 43.5985 376.989C32.4151 370.531 32.4151 360.062 43.5985 353.605C54.7819 347.148 72.9089 347.148 84.0923 353.605Z" fill="url(#paint22_radial_2209_495)" style="mix-blend-mode:multiply"/>
</g>
</mask>
<g mask="url(#mask6_2209_495)">
<path d="M84.0923 353.605C95.2757 360.062 95.2757 370.531 84.0923 376.988C72.9089 383.445 54.7819 383.445 43.5985 376.988C32.4151 370.531 32.4151 360.062 43.5985 353.605C54.7819 347.147 72.9089 347.147 84.0923 353.605Z" fill="url(#paint23_radial_2209_495)" style="mix-blend-mode:color-dodge"/>
</g>
<mask id="mask7_2209_495" style="mask-type:luminance" maskUnits="userSpaceOnUse" x="60" y="0" width="9" height="369">
<g clip-path="url(#clip7_2209_495)">
<rect width="8.38388" height="368.086" transform="translate(60.0391)" fill="white"/>
<path d="M60.0391 0.044329V365.684C60.0464 366.298 60.4601 366.903 61.2653 367.376C62.9051 368.322 65.5569 368.322 67.1967 367.376C68.024 366.896 68.4377 366.268 68.4229 365.64V0L60.0391 0.044329Z" fill="url(#paint24_linear_2209_495)" style="mix-blend-mode:multiply"/>
</g>
</mask>
<g mask="url(#mask7_2209_495)">
<path d="M60.0391 0.044329V365.684C60.0464 366.298 60.4601 366.903 61.2653 367.376C62.9051 368.322 65.5569 368.322 67.1967 367.376C68.024 366.896 68.4377 366.268 68.4229 365.64V0L60.0391 0.044329Z" fill="url(#paint25_linear_2209_495)" style="mix-blend-mode:color-dodge"/>
</g>
<defs>
<linearGradient id="paint0_linear_2209_495" x1="70.8984" y1="310.207" x2="340.497" y2="310.207" gradientUnits="userSpaceOnUse">
<stop/>
<stop offset="1" stop-color="#8FF5F0"/>
</linearGradient>
<linearGradient id="paint1_linear_2209_495" x1="292.861" y1="308.729" x2="118.535" y2="308.729" gradientUnits="userSpaceOnUse">
<stop/>
<stop offset="1" stop-color="#8FF5F0"/>
</linearGradient>
<radialGradient id="paint2_radial_2209_495" cx="0" cy="0" r="1" gradientTransform="matrix(20.2517 -11.6956 20.2486 11.6905 205.499 294.047)" gradientUnits="userSpaceOnUse">
<stop stop-color="white"/>
<stop offset="0.006" stop-color="#FCFCFC"/>
<stop offset="0.172" stop-color="#BABABA"/>
<stop offset="0.335" stop-color="#818181"/>
<stop offset="0.492" stop-color="#535353"/>
<stop offset="0.64" stop-color="#2F2F2F"/>
<stop offset="0.778" stop-color="#151515"/>
<stop offset="0.902" stop-color="#050505"/>
<stop offset="1"/>
</radialGradient>
<radialGradient id="paint3_radial_2209_495" cx="0" cy="0" r="1" gradientTransform="matrix(20.2517 -11.6956 20.2486 11.6905 205.499 294.047)" gradientUnits="userSpaceOnUse">
<stop stop-color="#00BFFF"/>
<stop offset="0.006" stop-color="#00BDFC"/>
<stop offset="0.172" stop-color="#008BBA"/>
<stop offset="0.335" stop-color="#006181"/>
<stop offset="0.492" stop-color="#003E53"/>
<stop offset="0.64" stop-color="#00232F"/>
<stop offset="0.778" stop-color="#000F15"/>
<stop offset="0.902" stop-color="#000405"/>
<stop offset="1"/>
</radialGradient>
<linearGradient id="paint4_linear_2209_495" x1="205.97" y1="294.662" x2="205.97" y2="118.993" gradientUnits="userSpaceOnUse">
<stop stop-color="white"/>
<stop offset="0.263" stop-color="#B4B4B4"/>
<stop offset="0.626" stop-color="#545454"/>
<stop offset="0.88" stop-color="#171717"/>
<stop offset="1"/>
</linearGradient>
<linearGradient id="paint5_linear_2209_495" x1="205.97" y1="294.662" x2="205.97" y2="118.993" gradientUnits="userSpaceOnUse">
<stop stop-color="#00BFFF"/>
<stop offset="0.263" stop-color="#0087B4"/>
<stop offset="0.626" stop-color="#003F54"/>
<stop offset="0.88" stop-color="#001117"/>
<stop offset="1"/>
</linearGradient>
<linearGradient id="paint6_linear_2209_495" x1="-213.367" y1="-0.000195631" x2="56.2317" y2="-0.000195631" gradientUnits="userSpaceOnUse">
<stop/>
<stop offset="1" stop-color="#8FF5F0"/>
</linearGradient>
<linearGradient id="paint7_linear_2209_495" x1="8.60249" y1="308.729" x2="-165.723" y2="308.729" gradientUnits="userSpaceOnUse">
<stop/>
<stop offset="1" stop-color="#8FF5F0"/>
</linearGradient>
<linearGradient id="paint8_linear_2209_495" x1="-378.994" y1="613.047" x2="-371.608" y2="613.047" gradientUnits="userSpaceOnUse">
<stop/>
<stop offset="1" stop-color="#8FF5F0"/>
</linearGradient>
<linearGradient id="paint9_linear_2209_495" x1="292.861" y1="611.562" x2="118.535" y2="611.562" gradientUnits="userSpaceOnUse">
<stop/>
<stop offset="1" stop-color="#8FF5F0"/>
</linearGradient>
<radialGradient id="paint10_radial_2209_495" cx="0" cy="0" r="1" gradientTransform="matrix(3.69422 -2.13346 3.69364 2.13252 205.465 596.892)" gradientUnits="userSpaceOnUse">
<stop stop-color="white"/>
<stop offset="0.006" stop-color="#FCFCFC"/>
<stop offset="0.172" stop-color="#BABABA"/>
<stop offset="0.335" stop-color="#818181"/>
<stop offset="0.492" stop-color="#535353"/>
<stop offset="0.64" stop-color="#2F2F2F"/>
<stop offset="0.778" stop-color="#151515"/>
<stop offset="0.902" stop-color="#050505"/>
<stop offset="1"/>
</radialGradient>
<radialGradient id="paint11_radial_2209_495" cx="0" cy="0" r="1" gradientTransform="matrix(3.69422 -2.13346 3.69364 2.13252 205.465 596.892)" gradientUnits="userSpaceOnUse">
<stop stop-color="#00BFFF"/>
<stop offset="0.006" stop-color="#00BDFC"/>
<stop offset="0.172" stop-color="#008BBA"/>
<stop offset="0.335" stop-color="#006181"/>
<stop offset="0.492" stop-color="#003E53"/>
<stop offset="0.64" stop-color="#00232F"/>
<stop offset="0.778" stop-color="#000F15"/>
<stop offset="0.902" stop-color="#000405"/>
<stop offset="1"/>
</radialGradient>
<linearGradient id="paint12_linear_2209_495" x1="-378.997" y1="597.502" x2="-371.608" y2="421.834" gradientUnits="userSpaceOnUse">
<stop stop-color="white"/>
<stop offset="0.263" stop-color="#B4B4B4"/>
<stop offset="0.626" stop-color="#545454"/>
<stop offset="0.88" stop-color="#171717"/>
<stop offset="1"/>
</linearGradient>
<linearGradient id="paint13_linear_2209_495" x1="-378.997" y1="597.502" x2="-371.608" y2="421.834" gradientUnits="userSpaceOnUse">
<stop stop-color="#00BFFF"/>
<stop offset="0.263" stop-color="#0087B4"/>
<stop offset="0.626" stop-color="#003F54"/>
<stop offset="0.88" stop-color="#001117"/>
<stop offset="1"/>
</linearGradient>
<linearGradient id="paint14_linear_2209_495" x1="222.406" y1="461.228" x2="492.005" y2="461.228" gradientUnits="userSpaceOnUse">
<stop/>
<stop offset="1" stop-color="#8FF5F0"/>
</linearGradient>
<linearGradient id="paint15_linear_2209_495" x1="444.376" y1="459.743" x2="270.05" y2="459.743" gradientUnits="userSpaceOnUse">
<stop/>
<stop offset="1" stop-color="#8FF5F0"/>
</linearGradient>
<radialGradient id="paint16_radial_2209_495" cx="0" cy="0" r="1" gradientTransform="matrix(20.2517 -11.6956 20.2486 11.6905 357.252 445.137)" gradientUnits="userSpaceOnUse">
<stop stop-color="white"/>
<stop offset="0.006" stop-color="#FCFCFC"/>
<stop offset="0.172" stop-color="#BABABA"/>
<stop offset="0.335" stop-color="#818181"/>
<stop offset="0.492" stop-color="#535353"/>
<stop offset="0.64" stop-color="#2F2F2F"/>
<stop offset="0.778" stop-color="#151515"/>
<stop offset="0.902" stop-color="#050505"/>
<stop offset="1"/>
</radialGradient>
<radialGradient id="paint17_radial_2209_495" cx="0" cy="0" r="1" gradientTransform="matrix(20.2517 -11.6956 20.2486 11.6905 357.252 445.137)" gradientUnits="userSpaceOnUse">
<stop stop-color="#00BFFF"/>
<stop offset="0.006" stop-color="#00BDFC"/>
<stop offset="0.172" stop-color="#008BBA"/>
<stop offset="0.335" stop-color="#006181"/>
<stop offset="0.492" stop-color="#003E53"/>
<stop offset="0.64" stop-color="#00232F"/>
<stop offset="0.778" stop-color="#000F15"/>
<stop offset="0.902" stop-color="#000405"/>
<stop offset="1"/>
</radialGradient>
<linearGradient id="paint18_linear_2209_495" x1="357.712" y1="445.772" x2="357.712" y2="270.104" gradientUnits="userSpaceOnUse">
<stop stop-color="white"/>
<stop offset="0.263" stop-color="#B4B4B4"/>
<stop offset="0.626" stop-color="#545454"/>
<stop offset="0.88" stop-color="#171717"/>
<stop offset="1"/>
</linearGradient>
<linearGradient id="paint19_linear_2209_495" x1="357.712" y1="445.772" x2="357.712" y2="270.104" gradientUnits="userSpaceOnUse">
<stop stop-color="#00BFFF"/>
<stop offset="0.263" stop-color="#0087B4"/>
<stop offset="0.626" stop-color="#003F54"/>
<stop offset="0.88" stop-color="#001117"/>
<stop offset="1"/>
</linearGradient>
<linearGradient id="paint20_linear_2209_495" x1="-213.367" y1="613.047" x2="56.2317" y2="613.047" gradientUnits="userSpaceOnUse">
<stop/>
<stop offset="1" stop-color="#8FF5F0"/>
</linearGradient>
<linearGradient id="paint21_linear_2209_495" x1="8.60249" y1="611.562" x2="-165.723" y2="611.562" gradientUnits="userSpaceOnUse">
<stop/>
<stop offset="1" stop-color="#8FF5F0"/>
</linearGradient>
<radialGradient id="paint22_radial_2209_495" cx="0" cy="0" r="1" gradientTransform="matrix(20.2517 -11.6956 20.2486 11.6905 63.7314 365.392)" gradientUnits="userSpaceOnUse">
<stop stop-color="white"/>
<stop offset="0.006" stop-color="#FCFCFC"/>
<stop offset="0.172" stop-color="#BABABA"/>
<stop offset="0.335" stop-color="#818181"/>
<stop offset="0.492" stop-color="#535353"/>
<stop offset="0.64" stop-color="#2F2F2F"/>
<stop offset="0.778" stop-color="#151515"/>
<stop offset="0.902" stop-color="#050505"/>
<stop offset="1"/>
</radialGradient>
<radialGradient id="paint23_radial_2209_495" cx="0" cy="0" r="1" gradientTransform="matrix(20.2517 -11.6956 20.2486 11.6905 63.7314 365.392)" gradientUnits="userSpaceOnUse">
<stop stop-color="#00BFFF"/>
<stop offset="0.006" stop-color="#00BDFC"/>
<stop offset="0.172" stop-color="#008BBA"/>
<stop offset="0.335" stop-color="#006181"/>
<stop offset="0.492" stop-color="#003E53"/>
<stop offset="0.64" stop-color="#00232F"/>
<stop offset="0.778" stop-color="#000F15"/>
<stop offset="0.902" stop-color="#000405"/>
<stop offset="1"/>
</radialGradient>
<linearGradient id="paint24_linear_2209_495" x1="64.2273" y1="363.845" x2="64.2273" y2="7.94227" gradientUnits="userSpaceOnUse">
<stop stop-color="white"/>
<stop offset="0.263" stop-color="#B4B4B4"/>
<stop offset="0.626" stop-color="#545454"/>
<stop offset="0.88" stop-color="#171717"/>
<stop offset="1"/>
</linearGradient>
<linearGradient id="paint25_linear_2209_495" x1="64.2273" y1="363.845" x2="64.2273" y2="7.94227" gradientUnits="userSpaceOnUse">
<stop stop-color="#00BFFF"/>
<stop offset="0.263" stop-color="#0087B4"/>
<stop offset="0.626" stop-color="#003F54"/>
<stop offset="0.88" stop-color="#001117"/>
<stop offset="1"/>
</linearGradient>
<clipPath id="clip0_2209_495">
<rect width="57.2689" height="33.0694" fill="white" transform="translate(176.957 277.433)"/>
</clipPath>
<clipPath id="clip1_2209_495">
<rect width="8.38388" height="181.682" fill="white" transform="translate(201.781 115.07)"/>
</clipPath>
<clipPath id="clip2_2209_495">
<rect width="57.2689" height="33.0694" fill="white" transform="translate(176.957 580.273)"/>
</clipPath>
<clipPath id="clip3_2209_495">
<rect width="8.38388" height="181.682" fill="white" transform="translate(201.781 417.911)"/>
</clipPath>
<clipPath id="clip4_2209_495">
<rect width="57.2689" height="33.0694" fill="white" transform="translate(328.699 428.543)"/>
</clipPath>
<clipPath id="clip5_2209_495">
<rect width="8.38388" height="181.682" fill="white" transform="translate(353.523 266.181)"/>
</clipPath>
<clipPath id="clip6_2209_495">
<rect width="57.2689" height="33.0694" fill="white" transform="translate(35.2148 348.758)"/>
</clipPath>
<clipPath id="clip7_2209_495">
<rect width="8.38388" height="368.086" fill="white" transform="translate(60.0391)"/>
</clipPath>
</defs>
</svg>
