<svg width="805" height="424" viewBox="0 0 805 424" fill="none" xmlns="http://www.w3.org/2000/svg">
<g clip-path="url(#clip0_2209_334)">
<g style="mix-blend-mode:color-burn">
<path d="M619.604 127.224H14V309.143H72.4456L113.704 356L154.95 309.143H619.604V127.224Z" fill="white"/>
<path opacity="0.997" d="M620.617 126.209H15.3555V308.026H73.7643L114.998 354.856L156.227 308.026H620.617V126.209Z" fill="#FEFEFE"/>
<path opacity="0.994" d="M621.637 125.193H16.7148V306.913H75.091L116.304 353.715L157.505 306.913H621.637V125.193Z" fill="#FDFDFD"/>
<path opacity="0.99" d="M622.653 124.177H18.0664V305.795H76.4139L117.603 352.57L158.783 305.795H622.653V124.177Z" fill="#FCFCFC"/>
<path opacity="0.987" d="M623.669 123.165H19.4258V304.678H77.7365L118.905 351.425L160.061 304.678H623.669V123.165Z" fill="#FBFBFB"/>
<path opacity="0.984" d="M624.685 122.15H20.7812V303.557H79.0593L120.203 350.285L161.334 303.557H624.685V122.15Z" fill="#FAFAFB"/>
<path opacity="0.981" d="M625.698 121.134H22.1328V302.439H80.3823L121.501 349.14L162.608 302.439H625.698V121.134Z" fill="#F9FAFA"/>
<path opacity="0.977" d="M626.718 120.118H23.4922V301.326H81.7089L122.804 347.999L163.89 301.326H626.718V120.118Z" fill="#F8F9F9"/>
<path opacity="0.974" d="M627.73 119.106H24.8477V300.209H83.0317L124.102 346.855L165.164 300.209H627.73V119.106Z" fill="#F7F8F8"/>
<path opacity="0.971" d="M628.75 118.091H26.2031V299.091H84.3545L125.4 345.714L166.446 299.091H628.75V118.091Z" fill="#F6F7F7"/>
<path opacity="0.968" d="M629.762 117.075H27.5586V297.978H85.6772L126.702 344.569L167.719 297.978H629.762V117.075Z" fill="#F5F6F6"/>
<path opacity="0.965" d="M630.779 116.063H28.9141V296.861H87L128.001 343.425L168.997 296.861H630.779V116.063Z" fill="#F4F5F5"/>
<path opacity="0.961" d="M631.795 115.043H30.2695V295.739H88.3269L129.303 342.284L170.271 295.739H631.795V115.043Z" fill="#F3F4F4"/>
<path opacity="0.958" d="M632.811 114.035H31.625V294.622H89.6455L130.601 341.143L171.549 294.622H632.811V114.035Z" fill="#F2F3F3"/>
<path opacity="0.955" d="M633.827 113.016H32.9805V293.505H90.9683L131.899 339.998L172.822 293.505H633.827V113.016Z" fill="#F1F2F3"/>
<path opacity="0.952" d="M634.843 112H34.3398V292.391H92.2909L133.202 338.858L174.104 292.391H634.843V112Z" fill="#F0F1F2"/>
<path opacity="0.948" d="M635.859 110.988H35.6953V291.274H93.6178L134.5 337.713L175.378 291.274H635.859V110.988Z" fill="#F0F0F1"/>
<path opacity="0.945" d="M636.872 109.972H37.0469V290.157H94.9366L135.798 336.568L176.656 290.157H636.872V109.972Z" fill="#EFEFF0"/>
<path opacity="0.942" d="M637.892 108.96H38.4062V289.039H96.2592L137.1 335.427L177.933 289.039H637.892V108.96Z" fill="#EEEFEF"/>
<path opacity="0.939" d="M638.904 107.941H39.7617V287.922H97.582L138.399 334.283L179.207 287.922H638.904V107.941Z" fill="#EDEEEE"/>
<path opacity="0.936" d="M639.924 106.929H41.1211V286.805H98.9087L139.701 333.138L180.485 286.805H639.924V106.929Z" fill="#ECEDED"/>
<path opacity="0.932" d="M640.94 105.917H42.4766V285.687H100.231L140.999 331.997L181.763 285.687H640.94V105.917Z" fill="#EBECEC"/>
<path opacity="0.929" d="M641.953 104.901H43.8281V284.574H101.55L142.298 330.853L183.037 284.574H641.953V104.901Z" fill="#EAEBEB"/>
<path opacity="0.926" d="M642.973 103.882H45.1875V283.453H102.877L143.6 329.708L184.314 283.453H642.973V103.882Z" fill="#E9EAEB"/>
<path opacity="0.923" d="M643.985 102.866H46.5391V282.34H104.196L144.898 328.564L185.592 282.34H643.985V102.866Z" fill="#E8E9EA"/>
<path opacity="0.919" d="M645.005 101.858H47.8984V281.226H105.527L146.2 327.423L186.874 281.226H645.005V101.858Z" fill="#E7E8E9"/>
<path opacity="0.916" d="M646.018 100.839H49.25V280.101H106.845L147.499 326.282L188.148 280.101H646.018V100.839Z" fill="#E6E7E8"/>
<path opacity="0.913" d="M647.034 99.8228H50.6094V278.988H108.168L148.801 325.133L189.425 278.988H647.034V99.8228Z" fill="#E5E6E7"/>
<path opacity="0.91" d="M648.05 98.8071H51.9648V277.87H109.491L150.099 323.993L190.699 277.87H648.05V98.8071Z" fill="#E4E5E6"/>
<path opacity="0.907" d="M649.066 97.7991H53.3203V276.757H110.818L151.401 322.852L191.977 276.757H649.066V97.7991Z" fill="#E3E4E5"/>
<path opacity="0.903" d="M650.082 96.7795H54.6797V275.64H112.14L152.699 321.707L193.255 275.64H650.082V96.7795Z" fill="#E2E4E4"/>
<path opacity="0.9" d="M651.094 95.7637H56.0312V274.518H113.459L153.998 320.562L194.528 274.518H651.094V95.7637Z" fill="#E1E3E3"/>
<path opacity="0.897" d="M652.111 94.752H57.3867V273.405H114.782L155.296 319.422L195.806 273.405H652.111V94.752Z" fill="#E0E2E3"/>
<path opacity="0.894" d="M653.127 93.7363H58.7422V272.288H116.105L156.598 318.277L197.084 272.288H653.127V93.7363Z" fill="#DFE1E2"/>
<path opacity="0.89" d="M654.143 92.7244H60.0977V271.17H117.432L157.901 317.132L198.362 271.17H654.143V92.7244Z" fill="#DEE0E1"/>
<path opacity="0.887" d="M655.159 91.7046H61.4531V270.053H118.75L159.195 315.988L199.636 270.053H655.159V91.7046Z" fill="#DDDFE0"/>
<path opacity="0.884" d="M656.175 90.6929H62.8125V268.936H120.077L160.501 314.847L200.913 268.936H656.175V90.6929Z" fill="#DCDEDF"/>
<path opacity="0.881" d="M657.191 89.677H64.168V267.822H121.396L161.799 313.706L202.191 267.822H657.191V89.677Z" fill="#DBDDDE"/>
<path opacity="0.878" d="M658.208 88.6653H65.5234V266.705H122.722L163.102 312.562L203.469 266.705H658.208V88.6653Z" fill="#DADCDD"/>
<path opacity="0.874" d="M659.224 87.6497H66.8789V265.588H124.045L164.396 311.417L204.743 265.588H659.224V87.6497Z" fill="#D9DBDC"/>
<path opacity="0.871" d="M660.236 86.6338H68.2344V264.47H125.368L165.694 310.272L206.02 264.47H660.236V86.6338Z" fill="#D8DADC"/>
<path opacity="0.868" d="M661.256 85.6179H69.5938V263.349H126.691L167 309.131L207.302 263.349H661.256V85.6179Z" fill="#D7DADB"/>
<path opacity="0.865" d="M662.272 84.6023H70.9492V262.232H128.017L168.299 307.987L208.576 262.232H662.272V84.6023Z" fill="#D6D9DA"/>
<path opacity="0.861" d="M663.285 83.5906H72.3008V261.118H129.336L169.593 306.842L209.85 261.118H663.285V83.5906Z" fill="#D5D8D9"/>
<path opacity="0.858" d="M664.305 82.5747H73.6602V260.001H130.663L170.899 305.701L211.131 260.001H664.305V82.5747Z" fill="#D4D7D8"/>
<path opacity="0.855" d="M665.321 81.5588H75.0156V258.884H131.986L172.197 304.561L212.405 258.884H665.321V81.5588Z" fill="#D3D6D7"/>
<path opacity="0.852" d="M666.337 80.5471H76.375V257.766H133.308L173.496 303.412L213.687 257.766H666.337V80.5471Z" fill="#D3D5D6"/>
<path opacity="0.848" d="M667.353 79.5315H77.7266V256.649H134.631L174.794 302.271L214.957 256.649H667.353V79.5315Z" fill="#D2D4D5"/>
<path opacity="0.845" d="M668.369 78.5156H79.0859V255.536H135.954L176.096 301.131L216.238 255.536H668.369V78.5156Z" fill="#D1D3D4"/>
<path opacity="0.842" d="M669.386 77.5039H80.4414V254.418H137.277L177.403 299.986L217.516 254.418H669.386V77.5039Z" fill="#D0D2D4"/>
<path opacity="0.839" d="M670.398 76.4844H81.793V253.297H138.6L178.697 298.841L218.79 253.297H670.398V76.4844Z" fill="#CFD1D3"/>
<path opacity="0.836" d="M671.414 75.4724H83.1445V252.18H139.918L179.991 297.697L220.064 252.18H671.414V75.4724Z" fill="#CED0D2"/>
<path opacity="0.832" d="M672.43 74.4565H84.5039V251.066H141.245L181.297 296.556L221.342 251.066H672.43V74.4565Z" fill="#CDCFD1"/>
<path opacity="0.829" d="M673.447 73.4448H85.8594V249.949H142.568L182.596 295.415L222.619 249.949H673.447V73.4448Z" fill="#CCCFD0"/>
<path opacity="0.826" d="M674.463 72.429H87.2188V248.836H143.89L183.898 294.27L223.897 248.836H674.463V72.429Z" fill="#CBCECF"/>
<path opacity="0.823" d="M675.475 71.4133H88.5703V247.711H145.213L185.196 293.13L225.171 247.711H675.475V71.4133Z" fill="#CACDCE"/>
<path opacity="0.819" d="M676.491 70.3977H89.9258V246.597H146.536L186.495 291.985L226.449 246.597H676.491V70.3977Z" fill="#C9CCCD"/>
<path opacity="0.816" d="M677.511 69.3857H91.2852V245.484H147.863L187.797 290.844L227.731 245.484H677.511V69.3857Z" fill="#C8CBCC"/>
<path opacity="0.813" d="M678.527 68.3701H92.6406V244.363H149.182L189.095 289.7L229.004 244.363H678.527V68.3701Z" fill="#C7CACC"/>
<path opacity="0.81" d="M679.544 67.3542H93.9961V243.249H150.504L190.397 288.555L230.282 243.249H679.544V67.3542Z" fill="#C6C9CB"/>
<path opacity="0.807" d="M680.556 66.3425H95.3516V242.132H151.831L191.695 287.414L231.556 242.132H680.556V66.3425Z" fill="#C5C8CA"/>
<path opacity="0.803" d="M681.572 65.3267H96.707V241.014H153.15L192.994 286.27L232.834 241.014H681.572V65.3267Z" fill="#C4C7C9"/>
<path opacity="0.8" d="M682.588 64.311H98.0625V239.897H154.477L194.296 285.125L234.111 239.897H682.588V64.311Z" fill="#C3C6C8"/>
<path opacity="0.797" d="M683.605 63.2952H99.418V238.776H155.795L195.594 283.984L235.385 238.776H683.605V63.2952Z" fill="#C2C5C7"/>
<path opacity="0.794" d="M684.617 62.2834H100.773V237.663H157.122L196.893 282.84L236.663 237.663H684.617V62.2834Z" fill="#C1C5C6"/>
<path opacity="0.79" d="M685.637 61.2676H102.133V236.549H158.445L198.195 281.699L237.945 236.549H685.637V61.2676Z" fill="#C0C4C5"/>
<path opacity="0.787" d="M686.653 60.252H103.492V235.428H159.771L199.497 280.554L239.222 235.428H686.653V60.252Z" fill="#BFC3C4"/>
<path opacity="0.784" d="M687.665 59.2361H104.844V234.314H161.09L200.795 279.409L240.496 234.314H687.665V59.2361Z" fill="#BEC2C4"/>
<path opacity="0.781" d="M688.681 58.2244H106.199V233.197H162.413L202.098 278.265L241.77 233.197H688.681V58.2244Z" fill="#BDC1C3"/>
<path opacity="0.778" d="M689.698 57.2085H107.555V232.08H163.736L203.392 277.124L243.048 232.08H689.698V57.2085Z" fill="#BCC0C2"/>
<path opacity="0.774" d="M690.718 56.1929H108.914V230.963H165.063L204.694 275.983L244.325 230.963H690.718V56.1929Z" fill="#BBBFC1"/>
<path opacity="0.771" d="M691.734 55.177H110.266V229.841H166.381L205.992 274.835L245.599 229.841H691.734V55.177Z" fill="#BABEC0"/>
<path opacity="0.768" d="M692.75 54.1653H111.625V228.728H167.704L207.295 273.694L246.881 228.728H692.75V54.1653Z" fill="#B9BDBF"/>
<path opacity="0.765" d="M693.766 53.1494H112.98V227.614H169.031L208.597 272.553L248.155 227.614H693.766V53.1494Z" fill="#B8BCBE"/>
<path opacity="0.761" d="M694.778 52.1338H114.336V226.497H170.35L209.895 271.409L249.432 226.497H694.778V52.1338Z" fill="#B7BBBD"/>
<path opacity="0.758" d="M695.799 51.1179H115.691V225.38H171.676L211.193 270.264L250.71 225.38H695.799V51.1179Z" fill="#B6BABC"/>
<path opacity="0.755" d="M696.811 50.1062H117.047V224.263H172.995L212.492 269.123L251.984 224.263H696.811V50.1062Z" fill="#B6BABC"/>
<path opacity="0.752" d="M697.831 49.0903H118.406V223.141H174.326L213.794 267.978L253.266 223.141H697.831V49.0903Z" fill="#B5B9BB"/>
<path opacity="0.749" d="M698.847 48.0747H119.758V222.028H175.645L215.092 266.834L254.54 222.028H698.847V48.0747Z" fill="#B4B8BA"/>
<path opacity="0.745" d="M699.86 47.0588H121.113V220.91H176.967L216.394 265.693L255.813 220.91H699.86V47.0588Z" fill="#B3B7B9"/>
<path opacity="0.742" d="M700.876 46.0435H122.473V219.794H178.29L217.697 264.549L257.095 219.794H700.876V46.0435Z" fill="#B2B6B8"/>
<path opacity="0.739" d="M701.892 45.0312H123.824V218.676H179.617L218.991 263.407L258.369 218.676H701.892V45.0312Z" fill="#B1B5B7"/>
<path opacity="0.736" d="M702.904 44.0159H125.18V217.559H180.936L220.293 262.263L259.643 217.559H702.904V44.0159Z" fill="#B0B4B6"/>
<path opacity="0.732" d="M703.924 43H126.539V216.445H182.258L221.595 261.118L260.924 216.445H703.924V43Z" fill="#AFB3B5"/>
<path opacity="0.729" d="M704.936 41.9844H127.895V215.328H183.581L222.89 259.974L262.198 215.328H704.936V41.9844Z" fill="#AEB2B4"/>
<path opacity="0.726" d="M705.953 40.9724H129.246V214.207H184.9L224.192 258.833L263.472 214.207H705.953V40.9724Z" fill="#ADB1B4"/>
<path opacity="0.723" d="M706.969 39.9568H130.605V213.094H186.231L225.494 257.688L264.754 213.094H706.969V39.9568Z" fill="#ACB0B3"/>
<path opacity="0.72" d="M707.985 38.9409H131.961V211.976H187.549L226.793 256.547L266.027 211.976H707.985V38.9409Z" fill="#ABAFB2"/>
<path opacity="0.716" d="M708.997 37.9253H133.312V210.859H188.872L228.091 255.403L267.305 210.859H708.997V37.9253Z" fill="#AAAFB1"/>
<path opacity="0.713" d="M710.017 36.9133H134.672V209.745H190.195L229.389 254.258L268.583 209.745H710.017V36.9133Z" fill="#A9AEB0"/>
<path opacity="0.71" d="M711.038 35.8977H136.031V208.624H191.526L230.695 253.118L269.861 208.624H711.038V35.8977Z" fill="#A8ADAF"/>
<path opacity="0.707" d="M712.05 34.8818H137.387V207.511H192.844L231.994 251.973L271.138 207.511H712.05V34.8818Z" fill="#A7ACAE"/>
<path opacity="0.703" d="M713.062 33.8701H138.742V206.39H194.167L233.292 250.832L272.412 206.39H713.062V33.8701Z" fill="#A6ABAD"/>
<path opacity="0.7" d="M714.078 32.8542H140.094V205.272H195.49L234.59 249.687L273.686 205.272H714.078V32.8542Z" fill="#A5AAAC"/>
<path opacity="0.697" d="M715.098 31.8386H141.453V204.159H196.813L235.892 248.543L274.968 204.159H715.098V31.8386Z" fill="#A4A9AC"/>
<path opacity="0.694" d="M716.114 30.8228H142.812V203.037H198.139L237.19 247.398L276.245 203.037H716.114V30.8228Z" fill="#A3A8AB"/>
<path opacity="0.691" d="M717.122 29.811H144.164V201.924H199.458L238.489 246.257L277.519 201.924H717.122V29.811Z" fill="#A2A7AA"/>
<path opacity="0.687" d="M718.143 28.7952H145.52V200.811H200.781L239.791 245.116L278.793 200.811H718.143V28.7952Z" fill="#A1A6A9"/>
<path opacity="0.684" d="M719.155 27.7795H146.875V199.693H202.104L241.089 243.972L280.071 199.693H719.155V27.7795Z" fill="#A0A5A8"/>
<path opacity="0.681" d="M720.179 26.7637H148.234V198.572H203.431L242.392 242.827L281.349 198.572H720.179V26.7637Z" fill="#9FA5A7"/>
<path opacity="0.678" d="M721.192 25.752H149.586V197.455H204.749L243.69 241.686L282.626 197.455H721.192V25.752Z" fill="#9EA4A6"/>
<path opacity="0.674" d="M722.212 24.7361H150.945V196.337H206.076L244.992 240.546L283.904 196.337H722.212V24.7361Z" fill="#9DA3A5"/>
<path opacity="0.671" d="M723.228 23.7205H152.301V195.224H207.399L246.29 239.401L285.182 195.224H723.228V23.7205Z" fill="#9CA2A4"/>
<path opacity="0.668" d="M724.244 22.7046H153.656V194.107H208.726L247.593 238.26L286.46 194.107H724.244V22.7046Z" fill="#9BA1A4"/>
<path opacity="0.665" d="M725.256 21.6929H155.012V192.99H210.044L248.891 237.116L287.738 192.99H725.256V21.6929Z" fill="#9AA0A3"/>
<path opacity="0.662" d="M726.272 20.677H156.367V191.872H211.367L250.189 235.971L289.007 191.872H726.272V20.677Z" fill="#999FA2"/>
<path opacity="0.658" d="M727.293 19.6653H157.727V190.755H212.69L251.495 234.826L290.289 190.755H727.293V19.6653Z" fill="#999EA1"/>
<path opacity="0.655" d="M728.305 18.6494H159.078V189.637H214.013L252.79 233.685L291.563 189.637H728.305V18.6494Z" fill="#989DA0"/>
<path opacity="0.652" d="M729.317 17.6338H160.434V188.52H215.335L254.088 232.541L292.841 188.52H729.317V17.6338Z" fill="#979C9F"/>
<path opacity="0.649" d="M730.337 16.6179H161.793V187.403H216.662L255.39 231.4L294.118 187.403H730.337V16.6179Z" fill="#969B9E"/>
<path opacity="0.645" d="M731.349 15.6025H163.145V186.29H217.981L256.689 230.256L295.396 186.29H731.349V15.6025Z" fill="#959A9D"/>
<path opacity="0.642" d="M732.366 14.5903H164.5V185.172H219.304L257.987 229.111L296.67 185.172H732.366V14.5903Z" fill="#949A9C"/>
<path opacity="0.639" d="M733.382 13.575H165.859V184.055H220.63L259.293 227.97L297.952 184.055H733.382V13.575Z" fill="#93999C"/>
<path opacity="0.636" d="M734.398 12.5591H167.211V182.934H221.949L260.587 226.825L299.226 182.934H734.398V12.5591Z" fill="#92989B"/>
<path opacity="0.633" d="M735.418 11.5435H168.57V181.817H223.276L261.89 225.685L300.503 181.817H735.418V11.5435Z" fill="#91979A"/>
<path opacity="0.629" d="M736.43 10.5315H169.926V180.703H224.595L263.188 224.54L301.777 180.703H736.43V10.5315Z" fill="#909699"/>
<path opacity="0.626" d="M737.45 9.51587H171.285V179.586H225.921L264.49 223.395L303.055 179.586H737.45V9.51587Z" fill="#8F9598"/>
<path opacity="0.623" d="M738.462 8.5H172.641V178.472H227.244L265.792 222.251L304.332 178.472H738.462V8.5Z" fill="#8E9497"/>
<path opacity="0.62" d="M739.479 7.48828H173.996V177.355H228.567L267.086 221.11L305.606 177.355H739.479V7.48828Z" fill="#8D9396"/>
<path opacity="0.616" d="M740.495 6.46851H175.352V176.238H229.89L268.389 219.965L306.888 176.238H740.495V6.46851Z" fill="#8C9295"/>
<path opacity="0.613" d="M741.507 5.45679H176.707V175.117H231.212L269.687 218.825L308.162 175.117H741.507V5.45679Z" fill="#8B9195"/>
<path opacity="0.61" d="M742.523 4.44092H178.062V173.999H232.535L270.985 217.68L309.435 173.999H742.523V4.44092Z" fill="#8A9094"/>
<path opacity="0.607" d="M743.54 3.42529H179.418V172.886H233.862L272.288 216.535L310.717 172.886H743.54V3.42529Z" fill="#899093"/>
<path opacity="0.604" d="M744.556 2.41333H180.773V171.768H235.181L273.59 215.394L311.991 171.768H744.556V2.41333Z" fill="#888F92"/>
<path opacity="0.6" d="M745.568 1.39771H182.125V170.651H236.504L274.888 214.25L313.265 170.651H745.568V1.39771Z" fill="#878E91"/>
<path opacity="0.597" d="M746.588 0.381836H183.484V169.534H237.83L276.186 213.109L314.547 169.534H746.588V0.381836Z" fill="#868D90"/>
<path opacity="0.594" d="M747.6 -0.633789H184.84V168.42H239.149L277.485 211.964L315.82 168.42H747.6V-0.633789Z" fill="#858C8F"/>
<path opacity="0.591" d="M748.625 -1.64966H186.195V167.299H240.476L278.787 210.82L317.102 167.299H748.625V-1.64966Z" fill="#848B8E"/>
<path opacity="0.587" d="M749.641 -2.66138H187.551V166.182H241.795L280.089 209.679L318.376 166.182H749.641V-2.66138Z" fill="#838A8D"/>
<path opacity="0.584" d="M750.653 -3.67725H188.906V165.068H243.121L281.384 208.534L319.65 165.068H750.653V-3.67725Z" fill="#82898D"/>
<path opacity="0.581" d="M751.673 -4.69287H190.266V163.951H244.444L282.686 207.39L320.931 163.951H751.673V-4.69287Z" fill="#81888C"/>
<path opacity="0.578" d="M752.685 -5.70483H191.621V162.834H245.767L283.988 206.249L322.205 162.834H752.685V-5.70483Z" fill="#80878B"/>
<path opacity="0.574" d="M753.701 -6.72046H192.977V161.716H247.094L285.29 205.104L323.483 161.716H753.701V-6.72046Z" fill="#7F868A"/>
<path opacity="0.571" d="M754.718 -7.73633H194.332V160.599H248.416L286.589 203.959L324.761 160.599H754.718V-7.73633Z" fill="#7E8589"/>
<path opacity="0.568" d="M755.73 -8.74805H195.688V159.482H249.735L287.887 202.819L326.034 159.482H755.73V-8.74805Z" fill="#7D8588"/>
<path opacity="0.565" d="M756.75 -9.76392H197.043V158.364H251.062L289.189 201.674L327.312 158.364H756.75V-9.76392Z" fill="#7C8487"/>
<path opacity="0.562" d="M757.762 -10.7795H198.398V157.247H252.381L290.487 200.533L328.59 157.247H757.762V-10.7795Z" fill="#7C8386"/>
<path opacity="0.558" d="M758.778 -11.7952H199.754V156.134H253.703L291.782 199.389L329.864 156.134H758.778V-11.7952Z" fill="#7B8285"/>
<path opacity="0.555" d="M759.795 -12.8071H201.113V155.016H255.03L293.088 198.244L331.146 155.016H759.795V-12.8071Z" fill="#7A8185"/>
<path opacity="0.552" d="M760.811 -13.8228H202.465V153.899H256.349L294.386 197.103L332.419 153.899H760.811V-13.8228Z" fill="#798084"/>
<path opacity="0.549" d="M761.831 -14.8386H203.824V152.782H257.676L295.688 195.959L333.697 152.782H761.831V-14.8386Z" fill="#787F83"/>
<path opacity="0.545" d="M762.843 -15.8542H205.176V151.665H258.999L296.987 194.818L334.971 151.665H762.843V-15.8542Z" fill="#777E82"/>
<path opacity="0.542" d="M763.86 -16.8701H206.531V150.547H260.321L298.285 193.673L336.249 150.547H763.86V-16.8701Z" fill="#767D81"/>
<path opacity="0.539" d="M764.876 -17.8818H207.891V149.43H261.644L299.587 192.533L337.526 149.43H764.876V-17.8818Z" fill="#757C80"/>
<path opacity="0.536" d="M765.892 -18.8977H209.246V148.313H262.967L300.885 191.388L338.804 148.313H765.892V-18.8977Z" fill="#747B7F"/>
<path opacity="0.533" d="M766.904 -19.9094H210.602V147.195H264.289L302.184 190.247L340.078 147.195H766.904V-19.9094Z" fill="#737A7E"/>
<path opacity="0.529" d="M767.92 -20.925H211.957V146.082H265.612L303.486 189.103L341.36 146.082H767.92V-20.925Z" fill="#727A7D"/>
<path opacity="0.526" d="M768.936 -21.9409H213.312V144.965H266.935L304.784 187.962L342.634 144.965H768.936V-21.9409Z" fill="#71797D"/>
<path opacity="0.523" d="M769.952 -22.9568H214.672V143.847H268.262L306.086 186.817L343.911 143.847H769.952V-22.9568Z" fill="#70787C"/>
<path opacity="0.52" d="M770.969 -23.9685H216.023V142.73H269.581L307.385 185.672L345.185 142.73H770.969V-23.9685Z" fill="#6F777B"/>
<path opacity="0.516" d="M771.985 -24.9841H217.383V141.613H270.907L308.687 184.532L346.467 141.613H771.985V-24.9841Z" fill="#6E767A"/>
<path opacity="0.513" d="M773.001 -26H218.738V140.495H272.23L309.985 183.387L347.741 140.495H773.001V-26Z" fill="#6D7579"/>
</g>
<path d="M772.854 -30H185V136.495H241.734L281.777 179.383L321.82 136.495H772.854V-30Z" fill="url(#paint0_linear_2209_334)"/>
</g>
<defs>
<linearGradient id="paint0_linear_2209_334" x1="824.793" y1="-221.885" x2="421.978" y2="172.685" gradientUnits="userSpaceOnUse">
<stop stop-color="#DDE3E3"/>
<stop offset="1" stop-color="white"/>
</linearGradient>
<clipPath id="clip0_2209_334">
<rect width="805" height="424" fill="white"/>
</clipPath>
</defs>
</svg>
