<svg width="307" height="78" viewBox="0 0 307 78" fill="none" xmlns="http://www.w3.org/2000/svg">
<g clip-path="url(#clip0_2209_1049)">
<path d="M88.9453 58.253L110.42 1.29126H118.702L140.176 58.253C135.325 58.253 130.977 55.2036 129.35 50.6147L126.57 42.8283H102.64L99.8304 50.6443C98.1739 55.2332 93.8258 58.2826 88.9749 58.2826H88.9453V58.253ZM114.383 10.2618L105.095 35.9598H124.026L114.738 10.2618H114.383Z" fill="#1D3D70"/>
<path d="M179.751 58.2529H172.741V52.8351H172.415C171.291 54.7298 169.605 56.3285 167.298 57.6016C164.991 58.8747 162.595 59.526 160.11 59.526C155.348 59.526 151.68 58.1641 149.107 55.4404C146.534 52.7166 145.262 48.8383 145.262 43.7756V19.262H152.568V43.302C152.716 49.6672 155.94 52.8647 162.181 52.8647C168.422 52.8647 167.535 51.6804 169.487 49.312C171.439 46.9435 172.415 44.1309 172.415 40.8447V19.2916H179.721V58.2825L179.751 58.2529Z" fill="#1D3D70"/>
<path d="M197.943 58.253H190.637V19.262H197.647V25.6273H197.972C198.712 23.5548 200.25 21.8081 202.557 20.3278C204.864 18.8771 207.142 18.137 209.36 18.137C211.579 18.137 213.294 18.4626 214.773 19.0844L212.555 26.1602C211.667 25.7753 210.218 25.5976 208.266 25.5976C206.314 25.5976 203.119 26.7227 201.078 28.9431C199.037 31.1636 198.031 33.7689 198.031 36.7295V58.2233H197.943V58.253Z" fill="#1D3D70"/>
<path d="M230.923 5.82093C230.923 7.24201 230.42 8.48546 229.414 9.49206C228.409 10.4987 227.196 11.002 225.747 11.002C224.297 11.002 223.085 10.4987 222.079 9.49206C221.073 8.48546 220.57 7.27161 220.57 5.82093C220.57 4.37024 221.073 3.15639 222.079 2.14979C223.085 1.14319 224.297 0.639893 225.747 0.639893C227.196 0.639893 228.409 1.14319 229.414 2.14979C230.42 3.15639 230.923 4.37024 230.923 5.82093ZM229.414 19.262V58.253H222.108V19.262H229.414Z" fill="#1D3D70"/>
<path d="M258.904 0.639893C261.567 0.639893 263.726 1.08398 265.412 2.00176L263.43 8.45585C262.158 7.83413 260.738 7.50846 259.141 7.50846C257.544 7.50846 255.858 8.13019 254.734 9.37363C253.58 10.6171 253.018 12.275 253.018 14.3474V19.2916H263.193V25.9825H253.018V58.2826H245.712V25.9825H238.406V19.2916H245.712V13.6369C245.712 9.75851 246.955 6.64989 249.41 4.25181C251.865 1.85373 255.03 0.669498 258.904 0.669498V0.639893Z" fill="#1D3D70"/>
<path d="M307.002 19.262L282.6 77.2303C278.843 77.2303 276.329 73.3519 277.838 69.9177L284.108 55.7956L271.242 26.545C269.733 23.1107 272.247 19.262 276.004 19.262L287.599 47.2691H287.747L296.058 26.6338C297.863 22.1633 302.181 19.262 306.973 19.262H307.002Z" fill="#1D3D70"/>
<path d="M37.0632 21.7193L14.2578 8.54466C14.2578 1.97215 21.3568 -2.11347 27.0359 1.14318L47.0313 12.6895C43.0677 14.8803 39.6366 17.9889 37.0632 21.6897V21.7193Z" fill="url(#paint0_linear_2209_1049)"/>
<path d="M67.2038 24.3542C68.9194 28.8839 69.8364 33.7985 69.8364 38.9499C69.8364 44.1014 69.0377 48.2758 67.5588 52.539L49.3973 63.1083C45.345 61.184 41.8251 58.3122 39.2222 54.7595C49.9889 48.187 60.1936 41.9401 60.1936 41.9401L66.1094 38.5354L38.6602 22.6371C41.2631 18.9067 44.783 15.8277 48.8945 13.7849L67.2038 24.3542Z" fill="url(#paint1_linear_2209_1049)"/>
<path d="M0.650737 54.8483L0.562 54.7298C11.3287 48.1573 21.5335 41.9105 21.5335 41.9105L27.4493 38.5058L0 22.6074C4.17063 16.6567 12.1865 14.8803 18.4868 18.5218L34.075 27.522C32.6256 30.9267 31.8861 34.657 31.8861 38.565C31.8861 42.473 32.6552 46.1441 34.0454 49.4896L18.8418 58.3418C12.7485 61.8945 4.82137 60.4734 0.650737 54.7891V54.8483Z" fill="url(#paint2_linear_2209_1049)"/>
<path d="M14.4336 69.9176C15.6463 69.1479 26.7089 62.3977 37.6531 55.7068C40.2264 59.2595 43.5689 62.1905 47.5029 64.2037L26.1173 76.6382C20.941 79.658 14.4632 75.898 14.4632 69.9176H14.4336Z" fill="url(#paint3_linear_2209_1049)"/>
<path d="M91.7543 69.7696V77.7632H90.5711V69.7696H88.0273V68.6445H94.2981V69.7696H91.7543Z" fill="black"/>
<path d="M110.891 68.6741V69.7991H106.75V72.7005H110.477V73.7959H106.75V76.6973H110.891V77.8223H105.566V68.7037H110.891V68.6741Z" fill="black"/>
<path d="M126.537 77.9703C125.177 77.9703 124.053 77.5262 123.165 76.6084C122.278 75.6906 121.805 74.5656 121.805 73.2037C121.805 71.8419 122.248 70.7168 123.165 69.8287C124.053 68.9109 125.206 68.4668 126.537 68.4668C127.868 68.4668 129.022 68.9701 129.88 69.9471L129.052 70.7761C128.401 69.9767 127.573 69.5918 126.537 69.5918C125.502 69.5918 124.674 69.9175 123.994 70.5984C123.313 71.2794 122.988 72.1379 122.988 73.2333C122.988 74.3288 123.313 75.1873 123.994 75.8683C124.674 76.5492 125.502 76.8749 126.537 76.8749C127.573 76.8749 128.519 76.4308 129.288 75.5426L130.146 76.3716C129.702 76.8749 129.17 77.2894 128.549 77.5854C127.928 77.8815 127.247 77.9999 126.537 77.9999V77.9703Z" fill="black"/>
<path d="M142.75 77.7632H141.566V68.6445H142.75V72.5525H147.305V68.6445H148.488V77.7632H147.305V73.6479H142.75V77.7632Z" fill="black"/>
<path d="M161.531 77.7632H160.348V68.6445H161.767L166.204 75.7499H166.263L166.204 74.0032V68.6741H167.387V77.7928H166.175L161.531 70.3617H161.472L161.531 72.1084V77.7928V77.7632Z" fill="black"/>
<path d="M188.035 73.2037C188.035 74.5656 187.591 75.6906 186.674 76.5788C185.757 77.4966 184.663 77.9407 183.332 77.9407C182.001 77.9407 180.906 77.4966 179.99 76.5788C179.102 75.661 178.629 74.536 178.629 73.2037C178.629 71.8715 179.073 70.7168 179.99 69.8287C180.877 68.9109 182.001 68.4668 183.332 68.4668C184.663 68.4668 185.757 68.9405 186.674 69.8583C187.562 70.7761 188.035 71.9011 188.035 73.2333V73.2037ZM179.871 73.2037C179.871 74.2696 180.197 75.1281 180.877 75.8091C181.557 76.49 182.385 76.8453 183.362 76.8453C184.338 76.8453 185.166 76.49 185.846 75.8091C186.526 75.1281 186.852 74.2696 186.852 73.2037C186.852 72.1379 186.526 71.2794 185.846 70.5984C185.195 69.9175 184.367 69.5622 183.362 69.5622C182.356 69.5622 181.528 69.9175 180.877 70.5984C180.226 71.2794 179.871 72.1675 179.871 73.2037Z" fill="black"/>
<path d="M204.598 77.7632H199.48V68.6445H200.664V76.6381H204.598V77.7632Z" fill="black"/>
<path d="M224.594 73.2037C224.594 74.5656 224.15 75.6906 223.233 76.5788C222.316 77.4966 221.222 77.9407 219.891 77.9407C218.56 77.9407 217.465 77.4966 216.548 76.5788C215.661 75.661 215.188 74.536 215.188 73.2037C215.188 71.8715 215.631 70.7168 216.548 69.8287C217.435 68.9109 218.56 68.4668 219.891 68.4668C221.222 68.4668 222.316 68.9405 223.233 69.8583C224.12 70.7761 224.594 71.9011 224.594 73.2333V73.2037ZM216.43 73.2037C216.43 74.2696 216.755 75.1281 217.435 75.8091C218.116 76.49 218.944 76.8453 219.92 76.8453C220.896 76.8453 221.724 76.49 222.405 75.8091C223.085 75.1281 223.41 74.2696 223.41 73.2037C223.41 72.1379 223.085 71.2794 222.405 70.5984C221.754 69.9175 220.926 69.5622 219.92 69.5622C218.914 69.5622 218.086 69.9175 217.435 70.5984C216.785 71.2794 216.43 72.1675 216.43 73.2037Z" fill="black"/>
<path d="M244.648 73.5887C244.648 74.8618 244.264 75.8684 243.524 76.6381C242.666 77.5263 241.572 78 240.182 78C238.792 78 237.727 77.5559 236.81 76.6381C235.893 75.7204 235.449 74.5953 235.449 73.2631C235.449 71.9308 235.893 70.8058 236.81 69.888C237.727 68.9702 238.851 68.5261 240.182 68.5261C241.513 68.5261 241.483 68.6445 242.075 68.8814C242.666 69.1182 243.169 69.4439 243.524 69.888L242.696 70.717C242.43 70.3913 242.045 70.1248 241.602 69.9176C241.158 69.74 240.685 69.6215 240.182 69.6215C239.176 69.6215 238.348 69.9768 237.668 70.6577C236.987 71.3683 236.662 72.2269 236.662 73.2631C236.662 74.2993 236.987 75.1874 237.668 75.8684C238.348 76.5493 239.206 76.9046 240.182 76.9046C241.158 76.9046 241.838 76.6381 242.459 76.1348C243.051 75.6315 243.406 74.921 243.495 74.0328H240.182V72.9374H244.589C244.589 73.1742 244.648 73.4111 244.648 73.6183V73.5887Z" fill="black"/>
<path d="M259.349 73.5295V77.7632H258.166V73.5295L255.09 68.6445H256.45L258.698 72.3453H258.758L260.946 68.6445H262.307L259.29 73.5295H259.349Z" fill="black"/>
</g>
<defs>
<linearGradient id="paint0_linear_2209_1049" x1="30.6446" y1="9.85834e-05" x2="30.6446" y2="21.7193" gradientUnits="userSpaceOnUse">
<stop offset="0.2" stop-color="#416DB4"/>
<stop offset="0.6" stop-color="#408BC9"/>
<stop offset="0.8" stop-color="#34AFE4"/>
<stop offset="1" stop-color="#51C1B6"/>
</linearGradient>
<linearGradient id="paint1_linear_2209_1049" x1="38.6602" y1="38.4469" x2="69.8364" y2="38.4469" gradientUnits="userSpaceOnUse">
<stop offset="0.2" stop-color="#416DB4"/>
<stop offset="0.6" stop-color="#408BC9"/>
<stop offset="0.8" stop-color="#34AFE4"/>
<stop offset="1" stop-color="#51C1B6"/>
</linearGradient>
<linearGradient id="paint2_linear_2209_1049" x1="17.0375" y1="16.6359" x2="17.0375" y2="60.2786" gradientUnits="userSpaceOnUse">
<stop offset="0.2" stop-color="#416DB4"/>
<stop offset="0.6" stop-color="#408BC9"/>
<stop offset="0.8" stop-color="#34AFE4"/>
<stop offset="1" stop-color="#51C1B6"/>
</linearGradient>
<linearGradient id="paint3_linear_2209_1049" x1="30.9682" y1="55.7068" x2="30.9682" y2="77.704" gradientUnits="userSpaceOnUse">
<stop offset="0.2" stop-color="#416DB4"/>
<stop offset="0.6" stop-color="#408BC9"/>
<stop offset="0.8" stop-color="#34AFE4"/>
<stop offset="1" stop-color="#51C1B6"/>
</linearGradient>
<clipPath id="clip0_2209_1049">
<rect width="307" height="78" fill="white"/>
</clipPath>
</defs>
</svg>
